<?xml version="1.0" encoding="UTF-8" standalone="no"?>
<!DOCTYPE svg PUBLIC "-//W3C//DTD SVG 1.1//EN"
 "http://www.w3.org/Graphics/SVG/1.1/DTD/svg11.dtd">
<!-- Generated by graphviz version 2.40.1 (20161225.0304)
 -->
<!-- Title: %3 Pages: 1 -->
<svg width="426pt" height="620pt"
 viewBox="0.00 0.00 426.00 620.00" xmlns="http://www.w3.org/2000/svg" xmlns:xlink="http://www.w3.org/1999/xlink">
<g id="graph0" class="graph" transform="scale(1 1) rotate(0) translate(4 616)">
<title>%3</title>
<polygon fill="#ffffff" stroke="transparent" points="-4,4 -4,-616 421.9993,-616 421.9993,4 -4,4"/>
<!-- bab8f4d96c270cfec7cf234984324c1227b712ae -->
<g id="node1" class="node">
<title>bab8f4d96c270cfec7cf234984324c1227b712ae</title>
<ellipse fill="none" stroke="#000000" cx="177.1641" cy="-594" rx="58.9668" ry="18"/>
<text text-anchor="middle" x="177.1641" y="-589.8" font-family="Times,serif" font-size="14.00" fill="#000000">bab8f4: fib(5)</text>
</g>
<!-- 9b6ad1aa84705aa430ab2fd5650313cf21cc1593 -->
<g id="node2" class="node">
<title>9b6ad1aa84705aa430ab2fd5650313cf21cc1593</title>
<ellipse fill="none" stroke="#000000" cx="284.1641" cy="-450" rx="60.4204" ry="18"/>
<text text-anchor="middle" x="284.1641" y="-445.8" font-family="Times,serif" font-size="14.00" fill="#000000">9b6ad1: fib(4)</text>
</g>
<!-- bab8f4d96c270cfec7cf234984324c1227b712ae&#45;&gt;9b6ad1aa84705aa430ab2fd5650313cf21cc1593 -->
<g id="edge10" class="edge">
<title>bab8f4d96c270cfec7cf234984324c1227b712ae&#45;&gt;9b6ad1aa84705aa430ab2fd5650313cf21cc1593</title>
<path fill="none" stroke="#000000" stroke-dasharray="1,5" d="M227.7073,-584.709C253.1476,-577.2017 281.7826,-563.7889 297.1641,-540 309.1354,-521.4854 304.1764,-496.3869 297.1964,-477.3981"/>
<polygon fill="#000000" stroke="#000000" points="300.4291,-476.0558 293.4411,-468.0922 293.9377,-478.6754 300.4291,-476.0558"/>
</g>
<!-- 915c628b2ef33bac81949350389afae2b183c1d1 -->
<g id="node3" class="node">
<title>915c628b2ef33bac81949350389afae2b183c1d1</title>
<ellipse fill="none" stroke="#000000" cx="126.1641" cy="-306" rx="60.4204" ry="18"/>
<text text-anchor="middle" x="126.1641" y="-301.8" font-family="Times,serif" font-size="14.00" fill="#000000">915c62: fib(3)</text>
</g>
<!-- bab8f4d96c270cfec7cf234984324c1227b712ae&#45;&gt;915c628b2ef33bac81949350389afae2b183c1d1 -->
<g id="edge11" class="edge">
<title>bab8f4d96c270cfec7cf234984324c1227b712ae&#45;&gt;915c628b2ef33bac81949350389afae2b183c1d1</title>
<path fill="none" stroke="#000000" stroke-dasharray="1,5" d="M126.621,-584.709C101.1806,-577.2017 72.5457,-563.7889 57.1641,-540 13.6305,-472.6715 72.2075,-376.9666 105.6869,-331.6659"/>
<polygon fill="#000000" stroke="#000000" points="108.5782,-333.6451 111.8133,-323.5563 102.9928,-329.4256 108.5782,-333.6451"/>
</g>
<!-- 175f20497e7742fb76faa5c643b29344ae4bd58f -->
<g id="node4" class="node">
<title>175f20497e7742fb76faa5c643b29344ae4bd58f</title>
<ellipse fill="none" stroke="#000000" cx="177.1641" cy="-522" rx="111.1021" ry="18"/>
<text text-anchor="middle" x="177.1641" y="-517.8" font-family="Times,serif" font-size="14.00" fill="#000000">175f20: total([fib(4), fib(3)])</text>
</g>
<!-- bab8f4d96c270cfec7cf234984324c1227b712ae&#45;&gt;175f20497e7742fb76faa5c643b29344ae4bd58f -->
<g id="edge9" class="edge">
<title>bab8f4d96c270cfec7cf234984324c1227b712ae&#45;&gt;175f20497e7742fb76faa5c643b29344ae4bd58f</title>
<path fill="none" stroke="#000000" stroke-dasharray="1,5" d="M171.2117,-575.8314C170.4613,-568.131 170.2404,-558.9743 170.5491,-550.4166"/>
<polygon fill="#000000" stroke="#000000" points="174.0434,-550.6161 171.1881,-540.4133 167.0576,-550.1697 174.0434,-550.6161"/>
</g>
<!-- 9b6ad1aa84705aa430ab2fd5650313cf21cc1593&#45;&gt;915c628b2ef33bac81949350389afae2b183c1d1 -->
<g id="edge14" class="edge">
<title>9b6ad1aa84705aa430ab2fd5650313cf21cc1593&#45;&gt;915c628b2ef33bac81949350389afae2b183c1d1</title>
<path fill="none" stroke="#000000" stroke-dasharray="1,5" d="M238.026,-438.1974C213.4306,-429.8871 184.1997,-416.5088 164.1641,-396 147.4867,-378.9288 137.6624,-353.4334 132.1961,-333.9322"/>
<polygon fill="#000000" stroke="#000000" points="135.5424,-332.8918 129.6566,-324.0822 128.764,-334.6394 135.5424,-332.8918"/>
</g>
<!-- 638345a5350f58c9b69f95bbfcbbdf811facaba9 -->
<g id="node5" class="node">
<title>638345a5350f58c9b69f95bbfcbbdf811facaba9</title>
<ellipse fill="none" stroke="#000000" cx="285.1641" cy="-162" rx="60.9135" ry="18"/>
<text text-anchor="middle" x="285.1641" y="-157.8" font-family="Times,serif" font-size="14.00" fill="#000000">638345: fib(2)</text>
</g>
<!-- 9b6ad1aa84705aa430ab2fd5650313cf21cc1593&#45;&gt;638345a5350f58c9b69f95bbfcbbdf811facaba9 -->
<g id="edge12" class="edge">
<title>9b6ad1aa84705aa430ab2fd5650313cf21cc1593&#45;&gt;638345a5350f58c9b69f95bbfcbbdf811facaba9</title>
<path fill="none" stroke="#000000" stroke-dasharray="1,5" d="M335.6319,-440.4339C360.8385,-432.8757 388.9687,-419.5011 404.1641,-396 451.282,-323.1282 362.4851,-229.2125 313.883,-185.866"/>
<polygon fill="#000000" stroke="#000000" points="315.9984,-183.066 306.1701,-179.1092 311.3857,-188.3314 315.9984,-183.066"/>
</g>
<!-- 2df0d514fe07a2a8bb2d6482219d953255fc5ce6 -->
<g id="node6" class="node">
<title>2df0d514fe07a2a8bb2d6482219d953255fc5ce6</title>
<ellipse fill="none" stroke="#000000" cx="284.1641" cy="-378" rx="111.1021" ry="18"/>
<text text-anchor="middle" x="284.1641" y="-373.8" font-family="Times,serif" font-size="14.00" fill="#000000">2df0d5: total([fib(3), fib(2)])</text>
</g>
<!-- 9b6ad1aa84705aa430ab2fd5650313cf21cc1593&#45;&gt;2df0d514fe07a2a8bb2d6482219d953255fc5ce6 -->
<g id="edge13" class="edge">
<title>9b6ad1aa84705aa430ab2fd5650313cf21cc1593&#45;&gt;2df0d514fe07a2a8bb2d6482219d953255fc5ce6</title>
<path fill="none" stroke="#000000" stroke-dasharray="1,5" d="M278.2117,-431.8314C277.4613,-424.131 277.2404,-414.9743 277.5491,-406.4166"/>
<polygon fill="#000000" stroke="#000000" points="281.0434,-406.6161 278.1881,-396.4133 274.0576,-406.1697 281.0434,-406.6161"/>
</g>
<!-- 915c628b2ef33bac81949350389afae2b183c1d1&#45;&gt;638345a5350f58c9b69f95bbfcbbdf811facaba9 -->
<g id="edge17" class="edge">
<title>915c628b2ef33bac81949350389afae2b183c1d1&#45;&gt;638345a5350f58c9b69f95bbfcbbdf811facaba9</title>
<path fill="none" stroke="#000000" stroke-dasharray="1,5" d="M172.3875,-294.3826C197.2481,-286.1067 226.8771,-272.7019 247.1641,-252 263.8679,-234.9546 273.6897,-209.4567 279.1483,-189.9479"/>
<polygon fill="#000000" stroke="#000000" points="282.5815,-190.6502 281.6832,-180.0935 275.8022,-188.9062 282.5815,-190.6502"/>
</g>
<!-- 61cdc75bb4fee521e5cd92e2e843b1efe336c168 -->
<g id="node7" class="node">
<title>61cdc75bb4fee521e5cd92e2e843b1efe336c168</title>
<ellipse fill="none" stroke="#000000" cx="126.1641" cy="-18" rx="59.9272" ry="18"/>
<text text-anchor="middle" x="126.1641" y="-13.8" font-family="Times,serif" font-size="14.00" fill="#000000">61cdc7: fib(1)</text>
</g>
<!-- 915c628b2ef33bac81949350389afae2b183c1d1&#45;&gt;61cdc75bb4fee521e5cd92e2e843b1efe336c168 -->
<g id="edge15" class="edge">
<title>915c628b2ef33bac81949350389afae2b183c1d1&#45;&gt;61cdc75bb4fee521e5cd92e2e843b1efe336c168</title>
<path fill="none" stroke="#000000" stroke-dasharray="1,5" d="M74.28,-296.5475C48.8669,-289.0209 20.5016,-275.6403 5.1641,-252 -3.5442,-238.5774 .8306,-231.402 5.1641,-216 24.458,-147.4279 74.8269,-79.1194 104.1376,-43.4257"/>
<polygon fill="#000000" stroke="#000000" points="107.0405,-45.4094 110.7541,-35.4867 101.6632,-40.9278 107.0405,-45.4094"/>
</g>
<!-- 76527ceb2fd2dd4efda226d610fda88d873977f9 -->
<g id="node8" class="node">
<title>76527ceb2fd2dd4efda226d610fda88d873977f9</title>
<ellipse fill="none" stroke="#000000" cx="126.1641" cy="-234" rx="112.0625" ry="18"/>
<text text-anchor="middle" x="126.1641" y="-229.8" font-family="Times,serif" font-size="14.00" fill="#000000">76527c: total([fib(2), fib(1)])</text>
</g>
<!-- 915c628b2ef33bac81949350389afae2b183c1d1&#45;&gt;76527ceb2fd2dd4efda226d610fda88d873977f9 -->
<g id="edge16" class="edge">
<title>915c628b2ef33bac81949350389afae2b183c1d1&#45;&gt;76527ceb2fd2dd4efda226d610fda88d873977f9</title>
<path fill="none" stroke="#000000" stroke-dasharray="1,5" d="M120.2117,-287.8314C119.4613,-280.131 119.2404,-270.9743 119.5491,-262.4166"/>
<polygon fill="#000000" stroke="#000000" points="123.0434,-262.6161 120.1881,-252.4133 116.0576,-262.1697 123.0434,-262.6161"/>
</g>
<!-- 175f20497e7742fb76faa5c643b29344ae4bd58f&#45;&gt;bab8f4d96c270cfec7cf234984324c1227b712ae -->
<g id="edge21" class="edge">
<title>175f20497e7742fb76faa5c643b29344ae4bd58f&#45;&gt;bab8f4d96c270cfec7cf234984324c1227b712ae</title>
<polygon fill="#000000" stroke="transparent" stroke-width="7" points="183.1401,-540.4133 183.1252,-542.0787 183.0906,-543.7791 183.0368,-545.5103 182.9644,-547.2682 182.8737,-549.0486 182.7653,-550.8471 182.6395,-552.6595 182.4968,-554.4816 182.3377,-556.309 182.1625,-558.1373 181.9719,-559.9622 181.7661,-561.7792 181.5456,-563.584 181.311,-565.3719 181.0627,-567.1387 180.8011,-568.8796 180.5268,-570.59 180.2404,-572.2653 179.9422,-573.9008 179.6311,-575.5126 186.602,-576.1501 186.5918,-574.4708 186.5632,-572.7371 186.5148,-570.9742 186.4472,-569.1856 186.3608,-567.3754 186.2563,-565.5474 186.1341,-563.7058 185.9946,-561.8545 185.8383,-559.9977 185.6656,-558.1396 185.4772,-556.2842 185.2732,-554.4358 185.0543,-552.5986 184.8209,-550.777 184.5734,-548.975 184.3122,-547.1971 184.0378,-545.4476 183.7507,-543.7309 183.4513,-542.0513 183.1401,-540.4133 183.1401,-540.4133"/>
</g>
<!-- 175f20497e7742fb76faa5c643b29344ae4bd58f&#45;&gt;9b6ad1aa84705aa430ab2fd5650313cf21cc1593 -->
<g id="edge1" class="edge">
<title>175f20497e7742fb76faa5c643b29344ae4bd58f&#45;&gt;9b6ad1aa84705aa430ab2fd5650313cf21cc1593</title>
<path fill="none" stroke="#000000" d="M203.3393,-504.3868C217.6137,-494.7816 235.4358,-482.7892 250.7096,-472.5115"/>
<polygon fill="#000000" stroke="#000000" points="253.0194,-475.1759 259.362,-466.6893 249.1114,-469.3683 253.0194,-475.1759"/>
</g>
<!-- 175f20497e7742fb76faa5c643b29344ae4bd58f&#45;&gt;915c628b2ef33bac81949350389afae2b183c1d1 -->
<g id="edge2" class="edge">
<title>175f20497e7742fb76faa5c643b29344ae4bd58f&#45;&gt;915c628b2ef33bac81949350389afae2b183c1d1</title>
<path fill="none" stroke="#000000" d="M170.5054,-503.8947C161.8328,-479.6474 146.7669,-435.1388 138.1641,-396 133.6592,-375.5044 130.5945,-351.9872 128.6904,-334.1334"/>
<polygon fill="#000000" stroke="#000000" points="132.1628,-333.6827 127.6768,-324.0844 125.1981,-334.3852 132.1628,-333.6827"/>
</g>
<!-- 638345a5350f58c9b69f95bbfcbbdf811facaba9&#45;&gt;61cdc75bb4fee521e5cd92e2e843b1efe336c168 -->
<g id="edge18" class="edge">
<title>638345a5350f58c9b69f95bbfcbbdf811facaba9&#45;&gt;61cdc75bb4fee521e5cd92e2e843b1efe336c168</title>
<path fill="none" stroke="#000000" stroke-dasharray="1,5" d="M238.6446,-150.2839C213.8452,-142.0002 184.3706,-128.6197 164.1641,-108 147.4603,-90.9546 137.6386,-65.4567 132.18,-45.9479"/>
<polygon fill="#000000" stroke="#000000" points="135.5261,-44.9062 129.6451,-36.0935 128.7468,-46.6502 135.5261,-44.9062"/>
</g>
<!-- ec00744583fe1612a841f09fd9ef36785b6d4ebe -->
<g id="node9" class="node">
<title>ec00744583fe1612a841f09fd9ef36785b6d4ebe</title>
<ellipse fill="none" stroke="#000000" cx="355.1641" cy="-18" rx="59.9272" ry="18"/>
<text text-anchor="middle" x="355.1641" y="-13.8" font-family="Times,serif" font-size="14.00" fill="#000000">ec0074: fib(0)</text>
</g>
<!-- 638345a5350f58c9b69f95bbfcbbdf811facaba9&#45;&gt;ec00744583fe1612a841f09fd9ef36785b6d4ebe -->
<g id="edge19" class="edge">
<title>638345a5350f58c9b69f95bbfcbbdf811facaba9&#45;&gt;ec00744583fe1612a841f09fd9ef36785b6d4ebe</title>
<path fill="none" stroke="#000000" stroke-dasharray="1,5" d="M337.0483,-152.5475C362.4614,-145.0209 390.8267,-131.6403 406.1641,-108 420.3161,-86.1869 402.1485,-60.2603 383.6915,-41.8499"/>
<polygon fill="#000000" stroke="#000000" points="386.0676,-39.2796 376.401,-34.9428 381.2533,-44.3612 386.0676,-39.2796"/>
</g>
<!-- d6e57b52c3f584d7aab74a1ebc0edcef4badff07 -->
<g id="node10" class="node">
<title>d6e57b52c3f584d7aab74a1ebc0edcef4badff07</title>
<ellipse fill="none" stroke="#000000" cx="285.1641" cy="-90" rx="112.0625" ry="18"/>
<text text-anchor="middle" x="285.1641" y="-85.8" font-family="Times,serif" font-size="14.00" fill="#000000">d6e57b: total([fib(1), fib(0)])</text>
</g>
<!-- 638345a5350f58c9b69f95bbfcbbdf811facaba9&#45;&gt;d6e57b52c3f584d7aab74a1ebc0edcef4badff07 -->
<g id="edge20" class="edge">
<title>638345a5350f58c9b69f95bbfcbbdf811facaba9&#45;&gt;d6e57b52c3f584d7aab74a1ebc0edcef4badff07</title>
<path fill="none" stroke="#000000" stroke-dasharray="1,5" d="M279.2117,-143.8314C278.4613,-136.131 278.2404,-126.9743 278.5491,-118.4166"/>
<polygon fill="#000000" stroke="#000000" points="282.0434,-118.6161 279.1881,-108.4133 275.0576,-118.1697 282.0434,-118.6161"/>
</g>
<!-- 2df0d514fe07a2a8bb2d6482219d953255fc5ce6&#45;&gt;9b6ad1aa84705aa430ab2fd5650313cf21cc1593 -->
<g id="edge22" class="edge">
<title>2df0d514fe07a2a8bb2d6482219d953255fc5ce6&#45;&gt;9b6ad1aa84705aa430ab2fd5650313cf21cc1593</title>
<polygon fill="#000000" stroke="transparent" stroke-width="7" points="290.1401,-396.4133 290.1252,-398.0787 290.0906,-399.7791 290.0368,-401.5103 289.9644,-403.2682 289.8737,-405.0486 289.7653,-406.8471 289.6395,-408.6595 289.4968,-410.4816 289.3377,-412.309 289.1625,-414.1373 288.9719,-415.9622 288.7661,-417.7792 288.5456,-419.584 288.311,-421.3719 288.0627,-423.1387 287.8011,-424.8796 287.5268,-426.59 287.2404,-428.2653 286.9422,-429.9008 286.6311,-431.5126 293.602,-432.1501 293.5918,-430.4708 293.5632,-428.7371 293.5148,-426.9742 293.4472,-425.1856 293.3608,-423.3754 293.2563,-421.5474 293.1341,-419.7058 292.9946,-417.8545 292.8383,-415.9977 292.6656,-414.1396 292.4772,-412.2842 292.2732,-410.4358 292.0543,-408.5986 291.8209,-406.777 291.5734,-404.975 291.3122,-403.1971 291.0378,-401.4476 290.7507,-399.7309 290.4513,-398.0513 290.1401,-396.4133 290.1401,-396.4133"/>
</g>
<!-- 2df0d514fe07a2a8bb2d6482219d953255fc5ce6&#45;&gt;915c628b2ef33bac81949350389afae2b183c1d1 -->
<g id="edge4" class="edge">
<title>2df0d514fe07a2a8bb2d6482219d953255fc5ce6&#45;&gt;915c628b2ef33bac81949350389afae2b183c1d1</title>
<path fill="none" stroke="#000000" d="M246.7203,-360.937C223.277,-350.254 193.0083,-336.4606 168.6656,-325.3678"/>
<polygon fill="#000000" stroke="#000000" points="169.8658,-322.0684 159.3147,-321.1066 166.9631,-328.4382 169.8658,-322.0684"/>
</g>
<!-- 2df0d514fe07a2a8bb2d6482219d953255fc5ce6&#45;&gt;638345a5350f58c9b69f95bbfcbbdf811facaba9 -->
<g id="edge3" class="edge">
<title>2df0d514fe07a2a8bb2d6482219d953255fc5ce6&#45;&gt;638345a5350f58c9b69f95bbfcbbdf811facaba9</title>
<path fill="none" stroke="#000000" d="M284.2477,-359.9555C284.4216,-322.3938 284.8236,-235.5541 285.0326,-190.4103"/>
<polygon fill="#000000" stroke="#000000" points="288.5337,-190.1612 285.0801,-180.1451 281.5338,-190.1287 288.5337,-190.1612"/>
</g>
<!-- 76527ceb2fd2dd4efda226d610fda88d873977f9&#45;&gt;915c628b2ef33bac81949350389afae2b183c1d1 -->
<g id="edge23" class="edge">
<title>76527ceb2fd2dd4efda226d610fda88d873977f9&#45;&gt;915c628b2ef33bac81949350389afae2b183c1d1</title>
<polygon fill="#000000" stroke="transparent" stroke-width="7" points="132.1401,-252.4133 132.1252,-254.0787 132.0906,-255.7791 132.0368,-257.5103 131.9644,-259.2682 131.8737,-261.0486 131.7653,-262.8471 131.6395,-264.6595 131.4968,-266.4816 131.3377,-268.309 131.1625,-270.1373 130.9719,-271.9622 130.7661,-273.7792 130.5456,-275.584 130.311,-277.3719 130.0627,-279.1387 129.8011,-280.8796 129.5268,-282.59 129.2404,-284.2653 128.9422,-285.9008 128.6311,-287.5126 135.602,-288.1501 135.5918,-286.4708 135.5632,-284.7371 135.5148,-282.9742 135.4472,-281.1856 135.3608,-279.3754 135.2563,-277.5474 135.1341,-275.7058 134.9946,-273.8545 134.8383,-271.9977 134.6656,-270.1396 134.4772,-268.2842 134.2732,-266.4358 134.0543,-264.5986 133.8209,-262.777 133.5734,-260.975 133.3122,-259.1971 133.0378,-257.4476 132.7507,-255.7309 132.4513,-254.0513 132.1401,-252.4133 132.1401,-252.4133"/>
</g>
<!-- 76527ceb2fd2dd4efda226d610fda88d873977f9&#45;&gt;638345a5350f58c9b69f95bbfcbbdf811facaba9 -->
<g id="edge6" class="edge">
<title>76527ceb2fd2dd4efda226d610fda88d873977f9&#45;&gt;638345a5350f58c9b69f95bbfcbbdf811facaba9</title>
<path fill="none" stroke="#000000" d="M163.8449,-216.937C187.4367,-206.254 217.8969,-192.4606 242.3937,-181.3678"/>
<polygon fill="#000000" stroke="#000000" points="244.138,-184.4201 251.8038,-177.1066 241.2504,-178.0434 244.138,-184.4201"/>
</g>
<!-- 76527ceb2fd2dd4efda226d610fda88d873977f9&#45;&gt;61cdc75bb4fee521e5cd92e2e843b1efe336c168 -->
<g id="edge5" class="edge">
<title>76527ceb2fd2dd4efda226d610fda88d873977f9&#45;&gt;61cdc75bb4fee521e5cd92e2e843b1efe336c168</title>
<path fill="none" stroke="#000000" d="M126.1641,-215.9555C126.1641,-178.3938 126.1641,-91.5541 126.1641,-46.4103"/>
<polygon fill="#000000" stroke="#000000" points="129.6642,-46.145 126.1641,-36.1451 122.6642,-46.1451 129.6642,-46.145"/>
</g>
<!-- d6e57b52c3f584d7aab74a1ebc0edcef4badff07&#45;&gt;638345a5350f58c9b69f95bbfcbbdf811facaba9 -->
<g id="edge24" class="edge">
<title>d6e57b52c3f584d7aab74a1ebc0edcef4badff07&#45;&gt;638345a5350f58c9b69f95bbfcbbdf811facaba9</title>
<polygon fill="#000000" stroke="transparent" stroke-width="7" points="291.1401,-108.4133 291.1252,-110.0787 291.0906,-111.7791 291.0368,-113.5103 290.9644,-115.2682 290.8737,-117.0486 290.7653,-118.8471 290.6395,-120.6595 290.4968,-122.4816 290.3377,-124.309 290.1625,-126.1373 289.9719,-127.9622 289.7661,-129.7792 289.5456,-131.584 289.311,-133.3719 289.0627,-135.1387 288.8011,-136.8796 288.5268,-138.59 288.2404,-140.2653 287.9422,-141.9008 287.6311,-143.5126 294.602,-144.1501 294.5918,-142.4708 294.5632,-140.7371 294.5148,-138.9742 294.4472,-137.1856 294.3608,-135.3754 294.2563,-133.5474 294.1341,-131.7058 293.9946,-129.8545 293.8383,-127.9977 293.6656,-126.1396 293.4772,-124.2842 293.2732,-122.4358 293.0543,-120.5986 292.8209,-118.777 292.5734,-116.975 292.3122,-115.1971 292.0378,-113.4476 291.7507,-111.7309 291.4513,-110.0513 291.1401,-108.4133 291.1401,-108.4133"/>
</g>
<!-- d6e57b52c3f584d7aab74a1ebc0edcef4badff07&#45;&gt;61cdc75bb4fee521e5cd92e2e843b1efe336c168 -->
<g id="edge7" class="edge">
<title>d6e57b52c3f584d7aab74a1ebc0edcef4badff07&#45;&gt;61cdc75bb4fee521e5cd92e2e843b1efe336c168</title>
<path fill="none" stroke="#000000" d="M247.4834,-72.937C223.8916,-62.254 193.4314,-48.4606 168.9346,-37.3678"/>
<polygon fill="#000000" stroke="#000000" points="170.0779,-34.0434 159.5245,-33.1066 167.1903,-40.4201 170.0779,-34.0434"/>
</g>
<!-- d6e57b52c3f584d7aab74a1ebc0edcef4badff07&#45;&gt;ec00744583fe1612a841f09fd9ef36785b6d4ebe -->
<g id="edge8" class="edge">
<title>d6e57b52c3f584d7aab74a1ebc0edcef4badff07&#45;&gt;ec00744583fe1612a841f09fd9ef36785b6d4ebe</title>
<path fill="none" stroke="#000000" d="M302.4675,-72.2022C311.093,-63.3303 321.6644,-52.4569 331.0688,-42.7837"/>
<polygon fill="#000000" stroke="#000000" points="333.84,-44.9543 338.3014,-35.3446 328.821,-40.0748 333.84,-44.9543"/>
</g>
</g>
</svg>
