<?xml version="1.0" encoding="UTF-8" standalone="no"?>
<!DOCTYPE svg PUBLIC "-//W3C//DTD SVG 1.1//EN"
 "http://www.w3.org/Graphics/SVG/1.1/DTD/svg11.dtd">
<!-- Generated by graphviz version 2.40.1 (20161225.0304)
 -->
<!-- Title: %3 Pages: 1 -->
<svg width="423pt" height="476pt"
 viewBox="0.00 0.00 422.64 476.00" xmlns="http://www.w3.org/2000/svg" xmlns:xlink="http://www.w3.org/1999/xlink">
<g id="graph0" class="graph" transform="scale(1 1) rotate(0) translate(4 472)">
<title>%3</title>
<polygon fill="#ffffff" stroke="transparent" points="-4,4 -4,-472 418.6441,-472 418.6441,4 -4,4"/>
<!-- 7c39475114ab80f49c8fa70a0cdc039443a181c2 -->
<g id="node1" class="node">
<title>7c39475114ab80f49c8fa70a0cdc039443a181c2</title>
<ellipse fill="none" stroke="#00ff00" cx="234.1641" cy="-450" rx="60.4204" ry="18"/>
<text text-anchor="middle" x="234.1641" y="-445.8" font-family="Times,serif" font-size="14.00" fill="#000000">7c3947: fib(5)</text>
</g>
<!-- b0287dc56b1c6c9d6429ccea9d576b08829097df -->
<g id="node2" class="node">
<title>b0287dc56b1c6c9d6429ccea9d576b08829097df</title>
<ellipse fill="none" stroke="#00ff00" cx="126.1641" cy="-306" rx="60.9135" ry="18"/>
<text text-anchor="middle" x="126.1641" y="-301.8" font-family="Times,serif" font-size="14.00" fill="#000000">b0287d: fib(4)</text>
</g>
<!-- 7c39475114ab80f49c8fa70a0cdc039443a181c2&#45;&gt;b0287dc56b1c6c9d6429ccea9d576b08829097df -->
<g id="edge7" class="edge">
<title>7c39475114ab80f49c8fa70a0cdc039443a181c2&#45;&gt;b0287dc56b1c6c9d6429ccea9d576b08829097df</title>
<path fill="none" stroke="#000000" stroke-dasharray="1,5" d="M182.28,-440.5475C156.8669,-433.0209 128.5016,-419.6403 113.1641,-396 101.1642,-377.5039 106.1258,-352.4038 113.1141,-333.4096"/>
<polygon fill="#000000" stroke="#000000" points="116.3741,-334.6837 116.8742,-324.1007 109.8836,-332.062 116.3741,-334.6837"/>
</g>
<!-- 0383f6d229cf59f940ed574d6f9b438f06da46ea -->
<g id="node3" class="node">
<title>0383f6d229cf59f940ed574d6f9b438f06da46ea</title>
<ellipse fill="none" stroke="#00ff00" cx="285.1641" cy="-162" rx="59.4599" ry="18"/>
<text text-anchor="middle" x="285.1641" y="-157.8" font-family="Times,serif" font-size="14.00" fill="#000000">0383f6: fib(3)</text>
</g>
<!-- 7c39475114ab80f49c8fa70a0cdc039443a181c2&#45;&gt;0383f6d229cf59f940ed574d6f9b438f06da46ea -->
<g id="edge8" class="edge">
<title>7c39475114ab80f49c8fa70a0cdc039443a181c2&#45;&gt;0383f6d229cf59f940ed574d6f9b438f06da46ea</title>
<path fill="none" stroke="#000000" stroke-dasharray="1,5" d="M286.0483,-440.5475C311.4614,-433.0209 339.8267,-419.6403 355.1641,-396 398.8529,-328.6605 339.6549,-232.9609 305.8412,-187.6636"/>
<polygon fill="#000000" stroke="#000000" points="308.5026,-185.3817 299.6541,-179.5547 302.9375,-189.6279 308.5026,-185.3817"/>
</g>
<!-- 521a8b06557f61c551e37ce81d387a06609908e0 -->
<g id="node4" class="node">
<title>521a8b06557f61c551e37ce81d387a06609908e0</title>
<ellipse fill="none" stroke="#00ff00" cx="234.1641" cy="-378" rx="112.0625" ry="18"/>
<text text-anchor="middle" x="234.1641" y="-373.8" font-family="Times,serif" font-size="14.00" fill="#000000">521a8b: total([fib(4), fib(3)])</text>
</g>
<!-- 7c39475114ab80f49c8fa70a0cdc039443a181c2&#45;&gt;521a8b06557f61c551e37ce81d387a06609908e0 -->
<g id="edge9" class="edge">
<title>7c39475114ab80f49c8fa70a0cdc039443a181c2&#45;&gt;521a8b06557f61c551e37ce81d387a06609908e0</title>
<path fill="none" stroke="#000000" stroke-dasharray="1,5" d="M228.2117,-431.8314C227.4613,-424.131 227.2404,-414.9743 227.5491,-406.4166"/>
<polygon fill="#000000" stroke="#000000" points="231.0434,-406.6161 228.1881,-396.4133 224.0576,-406.1697 231.0434,-406.6161"/>
</g>
<!-- b0287dc56b1c6c9d6429ccea9d576b08829097df&#45;&gt;0383f6d229cf59f940ed574d6f9b438f06da46ea -->
<g id="edge10" class="edge">
<title>b0287dc56b1c6c9d6429ccea9d576b08829097df&#45;&gt;0383f6d229cf59f940ed574d6f9b438f06da46ea</title>
<path fill="none" stroke="#000000" stroke-dasharray="1,5" d="M172.6837,-294.2839C197.4831,-286.0002 226.9576,-272.6197 247.1641,-252 263.8679,-234.9546 273.6897,-209.4567 279.1483,-189.9479"/>
<polygon fill="#000000" stroke="#000000" points="282.5815,-190.6502 281.6832,-180.0935 275.8022,-188.9062 282.5815,-190.6502"/>
</g>
<!-- 9fd61ccd626613545dde806422a30383915195c0 -->
<g id="node5" class="node">
<title>9fd61ccd626613545dde806422a30383915195c0</title>
<ellipse fill="none" stroke="#00ff00" cx="126.1641" cy="-18" rx="58.9668" ry="18"/>
<text text-anchor="middle" x="126.1641" y="-13.8" font-family="Times,serif" font-size="14.00" fill="#000000">9fd61c: fib(2)</text>
</g>
<!-- b0287dc56b1c6c9d6429ccea9d576b08829097df&#45;&gt;9fd61ccd626613545dde806422a30383915195c0 -->
<g id="edge11" class="edge">
<title>b0287dc56b1c6c9d6429ccea9d576b08829097df&#45;&gt;9fd61ccd626613545dde806422a30383915195c0</title>
<path fill="none" stroke="#000000" stroke-dasharray="1,5" d="M74.28,-296.5475C48.8669,-289.0209 20.5016,-275.6403 5.1641,-252 -3.5442,-238.5774 .8306,-231.402 5.1641,-216 24.458,-147.4279 74.8269,-79.1194 104.1376,-43.4257"/>
<polygon fill="#000000" stroke="#000000" points="107.0405,-45.4094 110.7541,-35.4867 101.6632,-40.9278 107.0405,-45.4094"/>
</g>
<!-- 2c136cd447385857c117e1470aef3a2af77d2eb0 -->
<g id="node6" class="node">
<title>2c136cd447385857c117e1470aef3a2af77d2eb0</title>
<ellipse fill="none" stroke="#00ff00" cx="126.1641" cy="-234" rx="111.5693" ry="18"/>
<text text-anchor="middle" x="126.1641" y="-229.8" font-family="Times,serif" font-size="14.00" fill="#000000">2c136c: total([fib(3), fib(2)])</text>
</g>
<!-- b0287dc56b1c6c9d6429ccea9d576b08829097df&#45;&gt;2c136cd447385857c117e1470aef3a2af77d2eb0 -->
<g id="edge12" class="edge">
<title>b0287dc56b1c6c9d6429ccea9d576b08829097df&#45;&gt;2c136cd447385857c117e1470aef3a2af77d2eb0</title>
<path fill="none" stroke="#000000" stroke-dasharray="1,5" d="M120.2117,-287.8314C119.4613,-280.131 119.2404,-270.9743 119.5491,-262.4166"/>
<polygon fill="#000000" stroke="#000000" points="123.0434,-262.6161 120.1881,-252.4133 116.0576,-262.1697 123.0434,-262.6161"/>
</g>
<!-- 0383f6d229cf59f940ed574d6f9b438f06da46ea&#45;&gt;9fd61ccd626613545dde806422a30383915195c0 -->
<g id="edge13" class="edge">
<title>0383f6d229cf59f940ed574d6f9b438f06da46ea&#45;&gt;9fd61ccd626613545dde806422a30383915195c0</title>
<path fill="none" stroke="#000000" stroke-dasharray="1,5" d="M239.2365,-150.4809C214.3155,-142.213 184.5317,-128.784 164.1641,-108 147.4603,-90.9546 137.6386,-65.4567 132.18,-45.9479"/>
<polygon fill="#000000" stroke="#000000" points="135.5261,-44.9062 129.6451,-36.0935 128.7468,-46.6502 135.5261,-44.9062"/>
</g>
<!-- f47d51231079da9dcd05ab802c2714b500f37415 -->
<g id="node7" class="node">
<title>f47d51231079da9dcd05ab802c2714b500f37415</title>
<ellipse fill="none" stroke="#00ff00" cx="355.1641" cy="-18" rx="59.4599" ry="18"/>
<text text-anchor="middle" x="355.1641" y="-13.8" font-family="Times,serif" font-size="14.00" fill="#000000">f47d51: fib(1)</text>
</g>
<!-- 0383f6d229cf59f940ed574d6f9b438f06da46ea&#45;&gt;f47d51231079da9dcd05ab802c2714b500f37415 -->
<g id="edge14" class="edge">
<title>0383f6d229cf59f940ed574d6f9b438f06da46ea&#45;&gt;f47d51231079da9dcd05ab802c2714b500f37415</title>
<path fill="none" stroke="#000000" stroke-dasharray="1,5" d="M336.4265,-152.7307C361.9974,-145.2387 390.7015,-131.8333 406.1641,-108 420.3161,-86.1869 402.1485,-60.2603 383.6915,-41.8499"/>
<polygon fill="#000000" stroke="#000000" points="386.0676,-39.2796 376.401,-34.9428 381.2533,-44.3612 386.0676,-39.2796"/>
</g>
<!-- 45c92d13377fbcb8a654dead4142c1f46f79f549 -->
<g id="node8" class="node">
<title>45c92d13377fbcb8a654dead4142c1f46f79f549</title>
<ellipse fill="none" stroke="#00ff00" cx="285.1641" cy="-90" rx="112.0625" ry="18"/>
<text text-anchor="middle" x="285.1641" y="-85.8" font-family="Times,serif" font-size="14.00" fill="#000000">45c92d: total([fib(2), fib(1)])</text>
</g>
<!-- 0383f6d229cf59f940ed574d6f9b438f06da46ea&#45;&gt;45c92d13377fbcb8a654dead4142c1f46f79f549 -->
<g id="edge15" class="edge">
<title>0383f6d229cf59f940ed574d6f9b438f06da46ea&#45;&gt;45c92d13377fbcb8a654dead4142c1f46f79f549</title>
<path fill="none" stroke="#000000" stroke-dasharray="1,5" d="M279.2117,-143.8314C278.4613,-136.131 278.2404,-126.9743 278.5491,-118.4166"/>
<polygon fill="#000000" stroke="#000000" points="282.0434,-118.6161 279.1881,-108.4133 275.0576,-118.1697 282.0434,-118.6161"/>
</g>
<!-- 521a8b06557f61c551e37ce81d387a06609908e0&#45;&gt;7c39475114ab80f49c8fa70a0cdc039443a181c2 -->
<g id="edge16" class="edge">
<title>521a8b06557f61c551e37ce81d387a06609908e0&#45;&gt;7c39475114ab80f49c8fa70a0cdc039443a181c2</title>
<polygon fill="#000000" stroke="transparent" stroke-width="7" points="240.1401,-396.4133 240.1252,-398.0787 240.0906,-399.7791 240.0368,-401.5103 239.9644,-403.2682 239.8737,-405.0486 239.7653,-406.8471 239.6395,-408.6595 239.4968,-410.4816 239.3377,-412.309 239.1625,-414.1373 238.9719,-415.9622 238.7661,-417.7792 238.5456,-419.584 238.311,-421.3719 238.0627,-423.1387 237.8011,-424.8796 237.5268,-426.59 237.2404,-428.2653 236.9422,-429.9008 236.6311,-431.5126 243.602,-432.1501 243.5918,-430.4708 243.5632,-428.7371 243.5148,-426.9742 243.4472,-425.1856 243.3608,-423.3754 243.2563,-421.5474 243.1341,-419.7058 242.9946,-417.8545 242.8383,-415.9977 242.6656,-414.1396 242.4772,-412.2842 242.2732,-410.4358 242.0543,-408.5986 241.8209,-406.777 241.5734,-404.975 241.3122,-403.1971 241.0378,-401.4476 240.7507,-399.7309 240.4513,-398.0513 240.1401,-396.4133 240.1401,-396.4133"/>
</g>
<!-- 521a8b06557f61c551e37ce81d387a06609908e0&#45;&gt;b0287dc56b1c6c9d6429ccea9d576b08829097df -->
<g id="edge1" class="edge">
<title>521a8b06557f61c551e37ce81d387a06609908e0&#45;&gt;b0287dc56b1c6c9d6429ccea9d576b08829097df</title>
<path fill="none" stroke="#000000" d="M207.7444,-360.3868C193.3365,-350.7816 175.3479,-338.7892 159.9314,-328.5115"/>
<polygon fill="#000000" stroke="#000000" points="161.4601,-325.3242 151.1981,-322.6893 157.5772,-331.1485 161.4601,-325.3242"/>
</g>
<!-- 521a8b06557f61c551e37ce81d387a06609908e0&#45;&gt;0383f6d229cf59f940ed574d6f9b438f06da46ea -->
<g id="edge2" class="edge">
<title>521a8b06557f61c551e37ce81d387a06609908e0&#45;&gt;0383f6d229cf59f940ed574d6f9b438f06da46ea</title>
<path fill="none" stroke="#000000" d="M240.5702,-359.8639C248.9298,-335.5826 263.5093,-291.0364 272.1641,-252 276.7133,-231.4816 280.0466,-207.9653 282.1984,-190.1176"/>
<polygon fill="#000000" stroke="#000000" points="285.6881,-190.4082 283.3575,-180.0729 278.7342,-189.6057 285.6881,-190.4082"/>
</g>
<!-- 2c136cd447385857c117e1470aef3a2af77d2eb0&#45;&gt;b0287dc56b1c6c9d6429ccea9d576b08829097df -->
<g id="edge17" class="edge">
<title>2c136cd447385857c117e1470aef3a2af77d2eb0&#45;&gt;b0287dc56b1c6c9d6429ccea9d576b08829097df</title>
<polygon fill="#000000" stroke="transparent" stroke-width="7" points="132.1401,-252.4133 132.1252,-254.0787 132.0906,-255.7791 132.0368,-257.5103 131.9644,-259.2682 131.8737,-261.0486 131.7653,-262.8471 131.6395,-264.6595 131.4968,-266.4816 131.3377,-268.309 131.1625,-270.1373 130.9719,-271.9622 130.7661,-273.7792 130.5456,-275.584 130.311,-277.3719 130.0627,-279.1387 129.8011,-280.8796 129.5268,-282.59 129.2404,-284.2653 128.9422,-285.9008 128.6311,-287.5126 135.602,-288.1501 135.5918,-286.4708 135.5632,-284.7371 135.5148,-282.9742 135.4472,-281.1856 135.3608,-279.3754 135.2563,-277.5474 135.1341,-275.7058 134.9946,-273.8545 134.8383,-271.9977 134.6656,-270.1396 134.4772,-268.2842 134.2732,-266.4358 134.0543,-264.5986 133.8209,-262.777 133.5734,-260.975 133.3122,-259.1971 133.0378,-257.4476 132.7507,-255.7309 132.4513,-254.0513 132.1401,-252.4133 132.1401,-252.4133"/>
</g>
<!-- 2c136cd447385857c117e1470aef3a2af77d2eb0&#45;&gt;0383f6d229cf59f940ed574d6f9b438f06da46ea -->
<g id="edge4" class="edge">
<title>2c136cd447385857c117e1470aef3a2af77d2eb0&#45;&gt;0383f6d229cf59f940ed574d6f9b438f06da46ea</title>
<path fill="none" stroke="#000000" d="M163.8449,-216.937C187.5177,-206.2172 218.1064,-192.3658 242.646,-181.2535"/>
<polygon fill="#000000" stroke="#000000" points="244.4026,-184.3002 252.0684,-176.9868 241.515,-177.9236 244.4026,-184.3002"/>
</g>
<!-- 2c136cd447385857c117e1470aef3a2af77d2eb0&#45;&gt;9fd61ccd626613545dde806422a30383915195c0 -->
<g id="edge3" class="edge">
<title>2c136cd447385857c117e1470aef3a2af77d2eb0&#45;&gt;9fd61ccd626613545dde806422a30383915195c0</title>
<path fill="none" stroke="#000000" d="M126.1641,-215.9555C126.1641,-178.3938 126.1641,-91.5541 126.1641,-46.4103"/>
<polygon fill="#000000" stroke="#000000" points="129.6642,-46.145 126.1641,-36.1451 122.6642,-46.1451 129.6642,-46.145"/>
</g>
<!-- 45c92d13377fbcb8a654dead4142c1f46f79f549&#45;&gt;0383f6d229cf59f940ed574d6f9b438f06da46ea -->
<g id="edge18" class="edge">
<title>45c92d13377fbcb8a654dead4142c1f46f79f549&#45;&gt;0383f6d229cf59f940ed574d6f9b438f06da46ea</title>
<polygon fill="#000000" stroke="transparent" stroke-width="7" points="291.1401,-108.4133 291.1252,-110.0787 291.0906,-111.7791 291.0368,-113.5103 290.9644,-115.2682 290.8737,-117.0486 290.7653,-118.8471 290.6395,-120.6595 290.4968,-122.4816 290.3377,-124.309 290.1625,-126.1373 289.9719,-127.9622 289.7661,-129.7792 289.5456,-131.584 289.311,-133.3719 289.0627,-135.1387 288.8011,-136.8796 288.5268,-138.59 288.2404,-140.2653 287.9422,-141.9008 287.6311,-143.5126 294.602,-144.1501 294.5918,-142.4708 294.5632,-140.7371 294.5148,-138.9742 294.4472,-137.1856 294.3608,-135.3754 294.2563,-133.5474 294.1341,-131.7058 293.9946,-129.8545 293.8383,-127.9977 293.6656,-126.1396 293.4772,-124.2842 293.2732,-122.4358 293.0543,-120.5986 292.8209,-118.777 292.5734,-116.975 292.3122,-115.1971 292.0378,-113.4476 291.7507,-111.7309 291.4513,-110.0513 291.1401,-108.4133 291.1401,-108.4133"/>
</g>
<!-- 45c92d13377fbcb8a654dead4142c1f46f79f549&#45;&gt;9fd61ccd626613545dde806422a30383915195c0 -->
<g id="edge5" class="edge">
<title>45c92d13377fbcb8a654dead4142c1f46f79f549&#45;&gt;9fd61ccd626613545dde806422a30383915195c0</title>
<path fill="none" stroke="#000000" d="M247.4834,-72.937C223.8106,-62.2172 193.2219,-48.3658 168.6823,-37.2535"/>
<polygon fill="#000000" stroke="#000000" points="169.8133,-33.9236 159.2599,-32.9868 166.9257,-40.3002 169.8133,-33.9236"/>
</g>
<!-- 45c92d13377fbcb8a654dead4142c1f46f79f549&#45;&gt;f47d51231079da9dcd05ab802c2714b500f37415 -->
<g id="edge6" class="edge">
<title>45c92d13377fbcb8a654dead4142c1f46f79f549&#45;&gt;f47d51231079da9dcd05ab802c2714b500f37415</title>
<path fill="none" stroke="#000000" d="M302.4675,-72.2022C311.093,-63.3303 321.6644,-52.4569 331.0688,-42.7837"/>
<polygon fill="#000000" stroke="#000000" points="333.84,-44.9543 338.3014,-35.3446 328.821,-40.0748 333.84,-44.9543"/>
</g>
</g>
</svg>
