<?xml version="1.0" encoding="utf-8"?>
<!-- Generator: Adobe Illustrator 18.0.0, SVG Export Plug-In . SVG Version: 6.00 Build 0)  -->
<!DOCTYPE svg PUBLIC "-//W3C//DTD SVG 1.1//EN" "http://www.w3.org/Graphics/SVG/1.1/DTD/svg11.dtd">
<svg version="1.1" id="Layer_1" xmlns="http://www.w3.org/2000/svg" xmlns:xlink="http://www.w3.org/1999/xlink" x="0px" y="0px"
	 viewBox="0 0 423 476" enable-background="new 0 0 423 476" xml:space="preserve">
<g id="graph0" transform="scale(1 1) rotate(0) translate(4 472)">
	<title>%3</title>
	<polygon fill="#FFFFFF" points="-3.8,4 -3.8,-472 418.8,-472 418.8,4 	"/>
	<g id="node1">
		<title>7c39475114ab80f49c8fa70a0cdc039443a181c2</title>
		<ellipse fill="none" stroke="#00FF00" cx="234.3" cy="-450" rx="60.4" ry="18"/>
		<text transform="matrix(1 0 0 1 194.1043 -445.8)" font-family="'Times-Roman'" font-size="14">7c3947: fib(5)</text>
	</g>
	<g id="node2">
		<title>b0287dc56b1c6c9d6429ccea9d576b08829097df</title>
		<ellipse fill="none" stroke="#00FF00" cx="126.3" cy="-306" rx="60.9" ry="18"/>
		<text transform="matrix(1 0 0 1 85.7113 -301.8)" font-family="'Times-Roman'" font-size="14">b0287d: fib(4)</text>
	</g>
	<g id="edge7">
		<title>7c39475114ab80f49c8fa70a0cdc039443a181c2-&gt;b0287dc56b1c6c9d6429ccea9d576b08829097df</title>
		<path fill="none" stroke="#000000" stroke-dasharray="1,5" d="M182.5-440.5c-25.4,7.5-53.8,20.9-69.1,44.5
			c-12,18.5-7,43.6-0.1,62.6"/>
		<polygon stroke="#000000" points="116.6,-334.7 117.1,-324.1 110.1,-332.1 		"/>
	</g>
	<g id="node3">
		<title>0383f6d229cf59f940ed574d6f9b438f06da46ea</title>
		<ellipse fill="none" stroke="#00FF00" cx="285.3" cy="-162" rx="59.5" ry="18"/>
		<text transform="matrix(1 0 0 1 245.8802 -157.8)" font-family="'Times-Roman'" font-size="14">0383f6: fib(3)</text>
	</g>
	<g id="edge8">
		<title>7c39475114ab80f49c8fa70a0cdc039443a181c2-&gt;0383f6d229cf59f940ed574d6f9b438f06da46ea</title>
		<path fill="none" stroke="#000000" stroke-dasharray="1,5" d="M286.2-440.5c25.4,7.5,53.8,20.9,69.1,44.5
			c43.7,67.3-15.5,163-49.3,208.3"/>
		<polygon stroke="#000000" points="308.7,-185.4 299.8,-179.6 303.1,-189.6 		"/>
	</g>
	<g id="node4">
		<title>521a8b06557f61c551e37ce81d387a06609908e0</title>
		<ellipse fill="none" stroke="#00FF00" cx="234.3" cy="-378" rx="112.1" ry="18"/>
		<text transform="matrix(1 0 0 1 152.9007 -373.8)" font-family="'Times-Roman'" font-size="14">521a8b: total([fib(4), fib(3)])</text>
	</g>
	<g id="edge9">
		<title>7c39475114ab80f49c8fa70a0cdc039443a181c2-&gt;521a8b06557f61c551e37ce81d387a06609908e0</title>
		<path fill="none" stroke="#000000" stroke-dasharray="1,5" d="M228.4-431.8c-0.8,7.7-1,16.9-0.7,25.4"/>
		<polygon stroke="#000000" points="231.2,-406.6 228.4,-396.4 224.2,-406.2 		"/>
	</g>
	<g id="edge10">
		<title>b0287dc56b1c6c9d6429ccea9d576b08829097df-&gt;0383f6d229cf59f940ed574d6f9b438f06da46ea</title>
		<path fill="none" stroke="#000000" stroke-dasharray="1,5" d="M172.9-294.3c24.8,8.3,54.3,21.7,74.5,42.3
			c16.7,17,26.5,42.5,32,62.1"/>
		<polygon stroke="#000000" points="282.8,-190.7 281.9,-180.1 276,-188.9 		"/>
	</g>
	<g id="node5">
		<title>9fd61ccd626613545dde806422a30383915195c0</title>
		<ellipse fill="none" stroke="#00FF00" cx="126.3" cy="-18" rx="59" ry="18"/>
		<text transform="matrix(1 0 0 1 87.2733 -13.8)" font-family="'Times-Roman'" font-size="14">9fd61c: fib(2)</text>
	</g>
	<g id="edge11">
		<title>b0287dc56b1c6c9d6429ccea9d576b08829097df-&gt;9fd61ccd626613545dde806422a30383915195c0</title>
		<path fill="none" stroke="#000000" stroke-dasharray="1,5" d="M74.5-296.5C49-289,20.7-275.6,5.3-252c-8.7,13.4-4.3,20.6,0,36
			c19.3,68.6,69.7,136.9,99,172.6"/>
		<polygon stroke="#000000" points="107.2,-45.4 110.9,-35.5 101.8,-40.9 		"/>
	</g>
	<g id="node6">
		<title>2c136cd447385857c117e1470aef3a2af77d2eb0</title>
		<ellipse fill="none" stroke="#00FF00" cx="126.3" cy="-234" rx="111.6" ry="18"/>
		<text transform="matrix(1 0 0 1 45.2938 -229.8)" font-family="'Times-Roman'" font-size="14">2c136c: total([fib(3), fib(2)])</text>
	</g>
	<g id="edge12">
		<title>b0287dc56b1c6c9d6429ccea9d576b08829097df-&gt;2c136cd447385857c117e1470aef3a2af77d2eb0</title>
		<path fill="none" stroke="#000000" stroke-dasharray="1,5" d="M120.4-287.8c-0.8,7.7-1,16.9-0.7,25.4"/>
		<polygon stroke="#000000" points="123.2,-262.6 120.4,-252.4 116.2,-262.2 		"/>
	</g>
	<g id="edge13">
		<title>0383f6d229cf59f940ed574d6f9b438f06da46ea-&gt;9fd61ccd626613545dde806422a30383915195c0</title>
		<path fill="none" stroke="#000000" stroke-dasharray="1,5" d="M239.4-150.5c-24.9,8.3-54.7,21.7-75.1,42.5
			c-16.7,17-26.5,42.5-32,62.1"/>
		<polygon stroke="#000000" points="135.7,-44.9 129.8,-36.1 128.9,-46.7 		"/>
	</g>
	<g id="node7">
		<title>f47d51231079da9dcd05ab802c2714b500f37415</title>
		<ellipse fill="none" stroke="#00FF00" cx="355.3" cy="-18" rx="59.5" ry="18"/>
		<text transform="matrix(1 0 0 1 315.8802 -13.8)" font-family="'Times-Roman'" font-size="14">f47d51: fib(1)</text>
	</g>
	<g id="edge14">
		<title>0383f6d229cf59f940ed574d6f9b438f06da46ea-&gt;f47d51231079da9dcd05ab802c2714b500f37415</title>
		<path fill="none" stroke="#000000" stroke-dasharray="1,5" d="M336.6-152.7c25.6,7.5,54.3,20.9,69.7,44.7
			c14.2,21.8-4,47.7-22.5,66.2"/>
		<polygon stroke="#000000" points="386.2,-39.3 376.6,-34.9 381.4,-44.4 		"/>
	</g>
	<g id="node8">
		<title>45c92d13377fbcb8a654dead4142c1f46f79f549</title>
		<ellipse fill="none" stroke="#00FF00" cx="285.3" cy="-90" rx="112.1" ry="18"/>
		<text transform="matrix(1 0 0 1 203.9007 -85.8)" font-family="'Times-Roman'" font-size="14">45c92d: total([fib(2), fib(1)])</text>
	</g>
	<g id="edge15">
		<title>0383f6d229cf59f940ed574d6f9b438f06da46ea-&gt;45c92d13377fbcb8a654dead4142c1f46f79f549</title>
		<path fill="none" stroke="#000000" stroke-dasharray="1,5" d="M279.4-143.8c-0.8,7.7-1,16.9-0.7,25.4"/>
		<polygon stroke="#000000" points="282.2,-118.6 279.4,-108.4 275.2,-118.2 		"/>
	</g>
	<g id="edge16">
		<title>521a8b06557f61c551e37ce81d387a06609908e0-&gt;7c39475114ab80f49c8fa70a0cdc039443a181c2</title>
		<polygon points="240.3,-396.4 240.3,-398.1 240.3,-399.8 240.2,-401.5 240.1,-403.3 240.1,-405 239.9,-406.8 239.8,-408.7 
			239.7,-410.5 239.5,-412.3 239.3,-414.1 239.2,-416 238.9,-417.8 238.7,-419.6 238.5,-421.4 238.2,-423.1 238,-424.9 
			237.7,-426.6 237.4,-428.3 237.1,-429.9 236.8,-431.5 243.8,-432.2 243.8,-430.5 243.7,-428.7 243.7,-427 243.6,-425.2 
			243.5,-423.4 243.4,-421.5 243.3,-419.7 243.2,-417.9 243,-416 242.8,-414.1 242.7,-412.3 242.5,-410.4 242.2,-408.6 242,-406.8 
			241.8,-405 241.5,-403.2 241.2,-401.4 240.9,-399.7 240.6,-398.1 240.3,-396.4 		"/>
	</g>
	<g id="edge1">
		<title>521a8b06557f61c551e37ce81d387a06609908e0-&gt;b0287dc56b1c6c9d6429ccea9d576b08829097df</title>
		<path fill="none" stroke="#000000" d="M207.9-360.4c-14.4,9.6-32.4,21.6-47.8,31.9"/>
		<polygon stroke="#000000" points="161.6,-325.3 151.4,-322.7 157.8,-331.1 		"/>
	</g>
	<g id="edge2">
		<title>521a8b06557f61c551e37ce81d387a06609908e0-&gt;0383f6d229cf59f940ed574d6f9b438f06da46ea</title>
		<path fill="none" stroke="#000000" d="M240.8-359.9c8.4,24.3,22.9,68.8,31.6,107.9c4.5,20.5,7.9,44,10,61.9"/>
		<polygon stroke="#000000" points="285.9,-190.4 283.5,-180.1 278.9,-189.6 		"/>
	</g>
	<g id="edge17">
		<title>2c136cd447385857c117e1470aef3a2af77d2eb0-&gt;b0287dc56b1c6c9d6429ccea9d576b08829097df</title>
		<polygon points="132.3,-252.4 132.3,-254.1 132.3,-255.8 132.2,-257.5 132.1,-259.3 132.1,-261 131.9,-262.8 131.8,-264.7 
			131.7,-266.5 131.5,-268.3 131.3,-270.1 131.2,-272 130.9,-273.8 130.7,-275.6 130.5,-277.4 130.2,-279.1 130,-280.9 
			129.7,-282.6 129.4,-284.3 129.1,-285.9 128.8,-287.5 135.8,-288.2 135.8,-286.5 135.7,-284.7 135.7,-283 135.6,-281.2 
			135.5,-279.4 135.4,-277.5 135.3,-275.7 135.2,-273.9 135,-272 134.8,-270.1 134.7,-268.3 134.5,-266.4 134.2,-264.6 134,-262.8 
			133.8,-261 133.5,-259.2 133.2,-257.4 132.9,-255.7 132.6,-254.1 132.3,-252.4 		"/>
	</g>
	<g id="edge4">
		<title>2c136cd447385857c117e1470aef3a2af77d2eb0-&gt;0383f6d229cf59f940ed574d6f9b438f06da46ea</title>
		<path fill="none" stroke="#000000" d="M164-216.9c23.7,10.7,54.3,24.6,78.8,35.7"/>
		<polygon stroke="#000000" points="244.6,-184.3 252.2,-177 241.7,-177.9 		"/>
	</g>
	<g id="edge3">
		<title>2c136cd447385857c117e1470aef3a2af77d2eb0-&gt;9fd61ccd626613545dde806422a30383915195c0</title>
		<path fill="none" stroke="#000000" d="M126.3-216c0,37.6,0,124.4,0,169.5"/>
		<polygon stroke="#000000" points="129.8,-46.1 126.3,-36.1 122.8,-46.1 		"/>
	</g>
	<g id="edge18">
		<title>45c92d13377fbcb8a654dead4142c1f46f79f549-&gt;0383f6d229cf59f940ed574d6f9b438f06da46ea</title>
		<polygon points="291.3,-108.4 291.3,-110.1 291.3,-111.8 291.2,-113.5 291.1,-115.3 291.1,-117 290.9,-118.8 290.8,-120.7 
			290.7,-122.5 290.5,-124.3 290.3,-126.1 290.2,-128 289.9,-129.8 289.7,-131.6 289.5,-133.4 289.2,-135.1 289,-136.9 
			288.7,-138.6 288.4,-140.3 288.1,-141.9 287.8,-143.5 294.8,-144.2 294.8,-142.5 294.7,-140.7 294.7,-139 294.6,-137.2 
			294.5,-135.4 294.4,-133.5 294.3,-131.7 294.2,-129.9 294,-128 293.8,-126.1 293.7,-124.3 293.5,-122.4 293.2,-120.6 293,-118.8 
			292.8,-117 292.5,-115.2 292.2,-113.4 291.9,-111.7 291.6,-110.1 291.3,-108.4 		"/>
	</g>
	<g id="edge5">
		<title>45c92d13377fbcb8a654dead4142c1f46f79f549-&gt;9fd61ccd626613545dde806422a30383915195c0</title>
		<path fill="none" stroke="#000000" d="M247.7-72.9c-23.7,10.7-54.3,24.6-78.8,35.7"/>
		<polygon stroke="#000000" points="170,-33.9 159.4,-33 167.1,-40.3 		"/>
	</g>
	<g id="edge6">
		<title>45c92d13377fbcb8a654dead4142c1f46f79f549-&gt;f47d51231079da9dcd05ab802c2714b500f37415</title>
		<path fill="none" stroke="#000000" d="M302.6-72.2c8.6,8.9,19.2,19.7,28.6,29.4"/>
		<polygon stroke="#000000" points="334,-45 338.5,-35.3 329,-40.1 		"/>
	</g>
</g>
</svg>
