<?xml version="1.0" encoding="UTF-8" standalone="no"?>
<!DOCTYPE svg PUBLIC "-//W3C//DTD SVG 1.1//EN"
 "http://www.w3.org/Graphics/SVG/1.1/DTD/svg11.dtd">
<!-- Generated by graphviz version 2.40.1 (20161225.0304)
 -->
<!-- Title: %3 Pages: 1 -->
<svg width="422pt" height="620pt"
 viewBox="0.00 0.00 421.74 620.00" xmlns="http://www.w3.org/2000/svg" xmlns:xlink="http://www.w3.org/1999/xlink">
<g id="graph0" class="graph" transform="scale(1 1) rotate(0) translate(4 616)">
<title>%3</title>
<polygon fill="#ffffff" stroke="transparent" points="-4,4 -4,-616 417.7409,-616 417.7409,4 -4,4"/>
<!-- d5a4c364308527e73514be1ddf283f3a26d21422 -->
<g id="node1" class="node">
<title>d5a4c364308527e73514be1ddf283f3a26d21422</title>
<ellipse fill="none" stroke="#000000" cx="178.2594" cy="-594" rx="59.9272" ry="18"/>
<text text-anchor="middle" x="178.2594" y="-589.8" font-family="Times,serif" font-size="14.00" fill="#000000">d5a4c3: fib(5)</text>
</g>
<!-- 3bd0a55e3a50c034273f29a306d7a8d7eb20f0dd -->
<g id="node2" class="node">
<title>3bd0a55e3a50c034273f29a306d7a8d7eb20f0dd</title>
<ellipse fill="none" stroke="#000000" cx="286.2594" cy="-450" rx="60.4204" ry="18"/>
<text text-anchor="middle" x="286.2594" y="-445.8" font-family="Times,serif" font-size="14.00" fill="#000000">3bd0a5: fib(4)</text>
</g>
<!-- d5a4c364308527e73514be1ddf283f3a26d21422&#45;&gt;3bd0a55e3a50c034273f29a306d7a8d7eb20f0dd -->
<g id="edge11" class="edge">
<title>d5a4c364308527e73514be1ddf283f3a26d21422&#45;&gt;3bd0a55e3a50c034273f29a306d7a8d7eb20f0dd</title>
<path fill="none" stroke="#000000" stroke-dasharray="1,5" d="M229.933,-584.8436C255.7116,-577.3842 284.6534,-563.9739 300.2594,-540 312.3072,-521.4921 307.0436,-496.3931 299.771,-477.4022"/>
<polygon fill="#000000" stroke="#000000" points="302.9624,-475.9622 295.8657,-468.0953 296.5076,-478.6707 302.9624,-475.9622"/>
</g>
<!-- 8ae1e321384aab2a70e9a6efb14e827b57a1472a -->
<g id="node3" class="node">
<title>8ae1e321384aab2a70e9a6efb14e827b57a1472a</title>
<ellipse fill="none" stroke="#000000" cx="127.2594" cy="-306" rx="59.434" ry="18"/>
<text text-anchor="middle" x="127.2594" y="-301.8" font-family="Times,serif" font-size="14.00" fill="#000000">8ae1e3: fib(3)</text>
</g>
<!-- d5a4c364308527e73514be1ddf283f3a26d21422&#45;&gt;8ae1e321384aab2a70e9a6efb14e827b57a1472a -->
<g id="edge10" class="edge">
<title>d5a4c364308527e73514be1ddf283f3a26d21422&#45;&gt;8ae1e321384aab2a70e9a6efb14e827b57a1472a</title>
<path fill="none" stroke="#000000" stroke-dasharray="1,5" d="M126.5858,-584.8436C100.8072,-577.3842 71.8653,-563.9739 56.2594,-540 12.4161,-472.6479 72.2349,-376.9543 106.3826,-331.661"/>
<polygon fill="#000000" stroke="#000000" points="109.2991,-333.6103 112.6304,-323.5528 103.7542,-329.3377 109.2991,-333.6103"/>
</g>
<!-- 9564848354f1d18731de767b07d3351ed774ec1e -->
<g id="node4" class="node">
<title>9564848354f1d18731de767b07d3351ed774ec1e</title>
<ellipse fill="none" stroke="#000000" cx="178.2594" cy="-522" rx="112.5556" ry="18"/>
<text text-anchor="middle" x="178.2594" y="-517.8" font-family="Times,serif" font-size="14.00" fill="#000000">956484: total([fib(4), fib(3)])</text>
</g>
<!-- d5a4c364308527e73514be1ddf283f3a26d21422&#45;&gt;9564848354f1d18731de767b07d3351ed774ec1e -->
<g id="edge9" class="edge">
<title>d5a4c364308527e73514be1ddf283f3a26d21422&#45;&gt;9564848354f1d18731de767b07d3351ed774ec1e</title>
<path fill="none" stroke="#000000" stroke-dasharray="1,5" d="M172.307,-575.8314C171.5566,-568.131 171.3357,-558.9743 171.6443,-550.4166"/>
<polygon fill="#000000" stroke="#000000" points="175.1386,-550.6161 172.2834,-540.4133 168.1528,-550.1697 175.1386,-550.6161"/>
</g>
<!-- 3bd0a55e3a50c034273f29a306d7a8d7eb20f0dd&#45;&gt;8ae1e321384aab2a70e9a6efb14e827b57a1472a -->
<g id="edge16" class="edge">
<title>3bd0a55e3a50c034273f29a306d7a8d7eb20f0dd&#45;&gt;8ae1e321384aab2a70e9a6efb14e827b57a1472a</title>
<path fill="none" stroke="#000000" stroke-dasharray="1,5" d="M240.036,-438.3826C215.1755,-430.1067 185.5464,-416.7019 165.2594,-396 148.5556,-378.9546 138.7339,-353.4567 133.2753,-333.9479"/>
<polygon fill="#000000" stroke="#000000" points="136.6213,-332.9062 130.7403,-324.0935 129.842,-334.6502 136.6213,-332.9062"/>
</g>
<!-- 22ad57886f4f7eceff675df5c36bd75641abb0aa -->
<g id="node5" class="node">
<title>22ad57886f4f7eceff675df5c36bd75641abb0aa</title>
<ellipse fill="none" stroke="#000000" cx="286.2594" cy="-162" rx="60.4204" ry="18"/>
<text text-anchor="middle" x="286.2594" y="-157.8" font-family="Times,serif" font-size="14.00" fill="#000000">22ad57: fib(2)</text>
</g>
<!-- 3bd0a55e3a50c034273f29a306d7a8d7eb20f0dd&#45;&gt;22ad57886f4f7eceff675df5c36bd75641abb0aa -->
<g id="edge17" class="edge">
<title>3bd0a55e3a50c034273f29a306d7a8d7eb20f0dd&#45;&gt;22ad57886f4f7eceff675df5c36bd75641abb0aa</title>
<path fill="none" stroke="#000000" stroke-dasharray="1,5" d="M338.1435,-440.5475C363.5566,-433.0209 391.9219,-419.6403 407.2594,-396 415.9677,-382.5774 411.593,-375.402 407.2594,-360 387.9655,-291.4279 337.5967,-223.1194 308.286,-187.4257"/>
<polygon fill="#000000" stroke="#000000" points="310.7604,-184.9278 301.6695,-179.4867 305.383,-189.4094 310.7604,-184.9278"/>
</g>
<!-- d08dc1cc25552973283d70b2a0a420b5488b6fa1 -->
<g id="node8" class="node">
<title>d08dc1cc25552973283d70b2a0a420b5488b6fa1</title>
<ellipse fill="none" stroke="#000000" cx="286.2594" cy="-378" rx="112.0625" ry="18"/>
<text text-anchor="middle" x="286.2594" y="-373.8" font-family="Times,serif" font-size="14.00" fill="#000000">d08dc1: total([fib(3), fib(2)])</text>
</g>
<!-- 3bd0a55e3a50c034273f29a306d7a8d7eb20f0dd&#45;&gt;d08dc1cc25552973283d70b2a0a420b5488b6fa1 -->
<g id="edge15" class="edge">
<title>3bd0a55e3a50c034273f29a306d7a8d7eb20f0dd&#45;&gt;d08dc1cc25552973283d70b2a0a420b5488b6fa1</title>
<path fill="none" stroke="#000000" stroke-dasharray="1,5" d="M280.307,-431.8314C279.5566,-424.131 279.3357,-414.9743 279.6443,-406.4166"/>
<polygon fill="#000000" stroke="#000000" points="283.1386,-406.6161 280.2834,-396.4133 276.1528,-406.1697 283.1386,-406.6161"/>
</g>
<!-- 8ae1e321384aab2a70e9a6efb14e827b57a1472a&#45;&gt;22ad57886f4f7eceff675df5c36bd75641abb0aa -->
<g id="edge12" class="edge">
<title>8ae1e321384aab2a70e9a6efb14e827b57a1472a&#45;&gt;22ad57886f4f7eceff675df5c36bd75641abb0aa</title>
<path fill="none" stroke="#000000" stroke-dasharray="1,5" d="M173.6396,-294.6413C198.7897,-286.4245 228.8186,-272.993 249.2594,-252 265.8429,-234.9685 275.3744,-209.4692 280.5961,-189.9563"/>
<polygon fill="#000000" stroke="#000000" points="284.0308,-190.6451 283.0097,-180.0996 277.2317,-188.9801 284.0308,-190.6451"/>
</g>
<!-- 1232518cd76988bc57b4410692b1806f323f4b7a -->
<g id="node6" class="node">
<title>1232518cd76988bc57b4410692b1806f323f4b7a</title>
<ellipse fill="none" stroke="#000000" cx="136.2594" cy="-18" rx="60.9135" ry="18"/>
<text text-anchor="middle" x="136.2594" y="-13.8" font-family="Times,serif" font-size="14.00" fill="#000000">123251: fib(1)</text>
</g>
<!-- 8ae1e321384aab2a70e9a6efb14e827b57a1472a&#45;&gt;1232518cd76988bc57b4410692b1806f323f4b7a -->
<g id="edge14" class="edge">
<title>8ae1e321384aab2a70e9a6efb14e827b57a1472a&#45;&gt;1232518cd76988bc57b4410692b1806f323f4b7a</title>
<path fill="none" stroke="#000000" stroke-dasharray="1,5" d="M75.5858,-296.8436C49.8072,-289.3842 20.8653,-275.9739 5.2594,-252 -3.4694,-238.5908 .6497,-231.3216 5.2594,-216 26.2908,-146.0967 80.9206,-78.1489 112.595,-42.9075"/>
<polygon fill="#000000" stroke="#000000" points="115.2108,-45.2333 119.3632,-35.4861 110.0387,-40.5164 115.2108,-45.2333"/>
</g>
<!-- 7d1bddc9e355ddf9c164d5a4f1cd3a7a79ba6f96 -->
<g id="node7" class="node">
<title>7d1bddc9e355ddf9c164d5a4f1cd3a7a79ba6f96</title>
<ellipse fill="none" stroke="#000000" cx="127.2594" cy="-234" rx="112.5556" ry="18"/>
<text text-anchor="middle" x="127.2594" y="-229.8" font-family="Times,serif" font-size="14.00" fill="#000000">7d1bdd: total([fib(2), fib(1)])</text>
</g>
<!-- 8ae1e321384aab2a70e9a6efb14e827b57a1472a&#45;&gt;7d1bddc9e355ddf9c164d5a4f1cd3a7a79ba6f96 -->
<g id="edge13" class="edge">
<title>8ae1e321384aab2a70e9a6efb14e827b57a1472a&#45;&gt;7d1bddc9e355ddf9c164d5a4f1cd3a7a79ba6f96</title>
<path fill="none" stroke="#000000" stroke-dasharray="1,5" d="M121.307,-287.8314C120.5566,-280.131 120.3357,-270.9743 120.6443,-262.4166"/>
<polygon fill="#000000" stroke="#000000" points="124.1386,-262.6161 121.2834,-252.4133 117.1528,-262.1697 124.1386,-262.6161"/>
</g>
<!-- 9564848354f1d18731de767b07d3351ed774ec1e&#45;&gt;d5a4c364308527e73514be1ddf283f3a26d21422 -->
<g id="edge21" class="edge">
<title>9564848354f1d18731de767b07d3351ed774ec1e&#45;&gt;d5a4c364308527e73514be1ddf283f3a26d21422</title>
<polygon fill="#000000" stroke="transparent" stroke-width="7" points="184.2354,-540.4133 184.2204,-542.0787 184.1858,-543.7791 184.1321,-545.5103 184.0597,-547.2682 183.969,-549.0486 183.8606,-550.8471 183.7348,-552.6595 183.5921,-554.4816 183.4329,-556.309 183.2578,-558.1373 183.0671,-559.9622 182.8613,-561.7792 182.6409,-563.584 182.4062,-565.3719 182.1579,-567.1387 181.8964,-568.8796 181.6221,-570.59 181.3356,-572.2653 181.0375,-573.9008 180.7263,-575.5126 187.6972,-576.1501 187.687,-574.4708 187.6584,-572.7371 187.61,-570.9742 187.5424,-569.1856 187.4561,-567.3754 187.3516,-565.5474 187.2293,-563.7058 187.0898,-561.8545 186.9335,-559.9977 186.7609,-558.1396 186.5724,-556.2842 186.3685,-554.4358 186.1496,-552.5986 185.9162,-550.777 185.6686,-548.975 185.4075,-547.1971 185.1331,-545.4476 184.846,-543.7309 184.5466,-542.0513 184.2354,-540.4133 184.2354,-540.4133"/>
</g>
<!-- 9564848354f1d18731de767b07d3351ed774ec1e&#45;&gt;3bd0a55e3a50c034273f29a306d7a8d7eb20f0dd -->
<g id="edge2" class="edge">
<title>9564848354f1d18731de767b07d3351ed774ec1e&#45;&gt;3bd0a55e3a50c034273f29a306d7a8d7eb20f0dd</title>
<path fill="none" stroke="#000000" d="M204.6792,-504.3868C219.3271,-494.6216 237.676,-482.3889 253.2605,-471.9993"/>
<polygon fill="#000000" stroke="#000000" points="255.214,-474.9034 261.5931,-466.4442 251.3311,-469.0791 255.214,-474.9034"/>
</g>
<!-- 9564848354f1d18731de767b07d3351ed774ec1e&#45;&gt;8ae1e321384aab2a70e9a6efb14e827b57a1472a -->
<g id="edge1" class="edge">
<title>9564848354f1d18731de767b07d3351ed774ec1e&#45;&gt;8ae1e321384aab2a70e9a6efb14e827b57a1472a</title>
<path fill="none" stroke="#000000" d="M171.6007,-503.8947C162.9281,-479.6474 147.8622,-435.1388 139.2594,-396 134.7544,-375.5044 131.6898,-351.9872 129.7857,-334.1334"/>
<polygon fill="#000000" stroke="#000000" points="133.258,-333.6827 128.7721,-324.0844 126.2934,-334.3852 133.258,-333.6827"/>
</g>
<!-- 22ad57886f4f7eceff675df5c36bd75641abb0aa&#45;&gt;1232518cd76988bc57b4410692b1806f323f4b7a -->
<g id="edge19" class="edge">
<title>22ad57886f4f7eceff675df5c36bd75641abb0aa&#45;&gt;1232518cd76988bc57b4410692b1806f323f4b7a</title>
<path fill="none" stroke="#000000" stroke-dasharray="1,5" d="M238.7199,-150.8629C213.7635,-142.7772 184.4647,-129.401 165.2594,-108 149.9026,-90.8875 142.6689,-65.5596 139.2667,-46.1284"/>
<polygon fill="#000000" stroke="#000000" points="142.6958,-45.3956 137.7435,-36.0295 135.7741,-46.4397 142.6958,-45.3956"/>
</g>
<!-- 800888f0ef7edc1c75e0133c964f0a57292bf028 -->
<g id="node9" class="node">
<title>800888f0ef7edc1c75e0133c964f0a57292bf028</title>
<ellipse fill="none" stroke="#000000" cx="295.2594" cy="-18" rx="60.9135" ry="18"/>
<text text-anchor="middle" x="295.2594" y="-13.8" font-family="Times,serif" font-size="14.00" fill="#000000">800888: fib(0)</text>
</g>
<!-- 22ad57886f4f7eceff675df5c36bd75641abb0aa&#45;&gt;800888f0ef7edc1c75e0133c964f0a57292bf028 -->
<g id="edge20" class="edge">
<title>22ad57886f4f7eceff675df5c36bd75641abb0aa&#45;&gt;800888f0ef7edc1c75e0133c964f0a57292bf028</title>
<path fill="none" stroke="#000000" stroke-dasharray="1,5" d="M338.1435,-152.5475C363.5566,-145.0209 391.9219,-131.6403 407.2594,-108 415.9677,-94.5774 415.7688,-85.5495 407.2594,-72 395.2672,-52.9048 374.4143,-40.402 353.9283,-32.291"/>
<polygon fill="#000000" stroke="#000000" points="354.8532,-28.9027 344.2593,-28.759 352.4514,-35.4777 354.8532,-28.9027"/>
</g>
<!-- 2267bc92f47e68c65dd21d791e6dde9bf629fae2 -->
<g id="node10" class="node">
<title>2267bc92f47e68c65dd21d791e6dde9bf629fae2</title>
<ellipse fill="none" stroke="#000000" cx="286.2594" cy="-90" rx="112.0625" ry="18"/>
<text text-anchor="middle" x="286.2594" y="-85.8" font-family="Times,serif" font-size="14.00" fill="#000000">2267bc: total([fib(1), fib(0)])</text>
</g>
<!-- 22ad57886f4f7eceff675df5c36bd75641abb0aa&#45;&gt;2267bc92f47e68c65dd21d791e6dde9bf629fae2 -->
<g id="edge18" class="edge">
<title>22ad57886f4f7eceff675df5c36bd75641abb0aa&#45;&gt;2267bc92f47e68c65dd21d791e6dde9bf629fae2</title>
<path fill="none" stroke="#000000" stroke-dasharray="1,5" d="M280.307,-143.8314C279.5566,-136.131 279.3357,-126.9743 279.6443,-118.4166"/>
<polygon fill="#000000" stroke="#000000" points="283.1386,-118.6161 280.2834,-108.4133 276.1528,-118.1697 283.1386,-118.6161"/>
</g>
<!-- 7d1bddc9e355ddf9c164d5a4f1cd3a7a79ba6f96&#45;&gt;8ae1e321384aab2a70e9a6efb14e827b57a1472a -->
<g id="edge22" class="edge">
<title>7d1bddc9e355ddf9c164d5a4f1cd3a7a79ba6f96&#45;&gt;8ae1e321384aab2a70e9a6efb14e827b57a1472a</title>
<polygon fill="#000000" stroke="transparent" stroke-width="7" points="133.2354,-252.4133 133.2204,-254.0787 133.1858,-255.7791 133.1321,-257.5103 133.0597,-259.2682 132.969,-261.0486 132.8606,-262.8471 132.7348,-264.6595 132.5921,-266.4816 132.4329,-268.309 132.2578,-270.1373 132.0671,-271.9622 131.8613,-273.7792 131.6409,-275.584 131.4062,-277.3719 131.1579,-279.1387 130.8964,-280.8796 130.6221,-282.59 130.3356,-284.2653 130.0375,-285.9008 129.7263,-287.5126 136.6972,-288.1501 136.687,-286.4708 136.6584,-284.7371 136.61,-282.9742 136.5424,-281.1856 136.4561,-279.3754 136.3516,-277.5474 136.2293,-275.7058 136.0898,-273.8545 135.9335,-271.9977 135.7609,-270.1396 135.5724,-268.2842 135.3685,-266.4358 135.1496,-264.5986 134.9162,-262.777 134.6686,-260.975 134.4075,-259.1971 134.1331,-257.4476 133.846,-255.7309 133.5466,-254.0513 133.2354,-252.4133 133.2354,-252.4133"/>
</g>
<!-- 7d1bddc9e355ddf9c164d5a4f1cd3a7a79ba6f96&#45;&gt;22ad57886f4f7eceff675df5c36bd75641abb0aa -->
<g id="edge3" class="edge">
<title>7d1bddc9e355ddf9c164d5a4f1cd3a7a79ba6f96&#45;&gt;22ad57886f4f7eceff675df5c36bd75641abb0aa</title>
<path fill="none" stroke="#000000" d="M164.9402,-216.937C188.5319,-206.254 218.9922,-192.4606 243.4889,-181.3678"/>
<polygon fill="#000000" stroke="#000000" points="245.2333,-184.4201 252.899,-177.1066 242.3457,-178.0434 245.2333,-184.4201"/>
</g>
<!-- 7d1bddc9e355ddf9c164d5a4f1cd3a7a79ba6f96&#45;&gt;1232518cd76988bc57b4410692b1806f323f4b7a -->
<g id="edge4" class="edge">
<title>7d1bddc9e355ddf9c164d5a4f1cd3a7a79ba6f96&#45;&gt;1232518cd76988bc57b4410692b1806f323f4b7a</title>
<path fill="none" stroke="#000000" d="M128.0112,-215.9555C129.5763,-178.3938 133.1946,-91.5541 135.0756,-46.4103"/>
<polygon fill="#000000" stroke="#000000" points="138.5839,-46.2821 135.5033,-36.1451 131.59,-45.9907 138.5839,-46.2821"/>
</g>
<!-- d08dc1cc25552973283d70b2a0a420b5488b6fa1&#45;&gt;3bd0a55e3a50c034273f29a306d7a8d7eb20f0dd -->
<g id="edge23" class="edge">
<title>d08dc1cc25552973283d70b2a0a420b5488b6fa1&#45;&gt;3bd0a55e3a50c034273f29a306d7a8d7eb20f0dd</title>
<polygon fill="#000000" stroke="transparent" stroke-width="7" points="292.2354,-396.4133 292.2204,-398.0787 292.1858,-399.7791 292.1321,-401.5103 292.0597,-403.2682 291.969,-405.0486 291.8606,-406.8471 291.7348,-408.6595 291.5921,-410.4816 291.4329,-412.309 291.2578,-414.1373 291.0671,-415.9622 290.8613,-417.7792 290.6409,-419.584 290.4062,-421.3719 290.1579,-423.1387 289.8964,-424.8796 289.6221,-426.59 289.3356,-428.2653 289.0375,-429.9008 288.7263,-431.5126 295.6972,-432.1501 295.687,-430.4708 295.6584,-428.7371 295.61,-426.9742 295.5424,-425.1856 295.4561,-423.3754 295.3516,-421.5474 295.2293,-419.7058 295.0898,-417.8545 294.9335,-415.9977 294.7609,-414.1396 294.5724,-412.2842 294.3685,-410.4358 294.1496,-408.5986 293.9162,-406.777 293.6686,-404.975 293.4075,-403.1971 293.1331,-401.4476 292.846,-399.7309 292.5466,-398.0513 292.2354,-396.4133 292.2354,-396.4133"/>
</g>
<!-- d08dc1cc25552973283d70b2a0a420b5488b6fa1&#45;&gt;8ae1e321384aab2a70e9a6efb14e827b57a1472a -->
<g id="edge5" class="edge">
<title>d08dc1cc25552973283d70b2a0a420b5488b6fa1&#45;&gt;8ae1e321384aab2a70e9a6efb14e827b57a1472a</title>
<path fill="none" stroke="#000000" d="M248.5786,-360.937C224.9058,-350.2172 194.3172,-336.3658 169.7775,-325.2535"/>
<polygon fill="#000000" stroke="#000000" points="170.9085,-321.9236 160.3552,-320.9868 168.0209,-328.3002 170.9085,-321.9236"/>
</g>
<!-- d08dc1cc25552973283d70b2a0a420b5488b6fa1&#45;&gt;22ad57886f4f7eceff675df5c36bd75641abb0aa -->
<g id="edge6" class="edge">
<title>d08dc1cc25552973283d70b2a0a420b5488b6fa1&#45;&gt;22ad57886f4f7eceff675df5c36bd75641abb0aa</title>
<path fill="none" stroke="#000000" d="M286.2594,-359.9555C286.2594,-322.3938 286.2594,-235.5541 286.2594,-190.4103"/>
<polygon fill="#000000" stroke="#000000" points="289.7595,-190.145 286.2594,-180.1451 282.7595,-190.1451 289.7595,-190.145"/>
</g>
<!-- 2267bc92f47e68c65dd21d791e6dde9bf629fae2&#45;&gt;22ad57886f4f7eceff675df5c36bd75641abb0aa -->
<g id="edge24" class="edge">
<title>2267bc92f47e68c65dd21d791e6dde9bf629fae2&#45;&gt;22ad57886f4f7eceff675df5c36bd75641abb0aa</title>
<polygon fill="#000000" stroke="transparent" stroke-width="7" points="292.2354,-108.4133 292.2204,-110.0787 292.1858,-111.7791 292.1321,-113.5103 292.0597,-115.2682 291.969,-117.0486 291.8606,-118.8471 291.7348,-120.6595 291.5921,-122.4816 291.4329,-124.309 291.2578,-126.1373 291.0671,-127.9622 290.8613,-129.7792 290.6409,-131.584 290.4062,-133.3719 290.1579,-135.1387 289.8964,-136.8796 289.6221,-138.59 289.3356,-140.2653 289.0375,-141.9008 288.7263,-143.5126 295.6972,-144.1501 295.687,-142.4708 295.6584,-140.7371 295.61,-138.9742 295.5424,-137.1856 295.4561,-135.3754 295.3516,-133.5474 295.2293,-131.7058 295.0898,-129.8545 294.9335,-127.9977 294.7609,-126.1396 294.5724,-124.2842 294.3685,-122.4358 294.1496,-120.5986 293.9162,-118.777 293.6686,-116.975 293.4075,-115.1971 293.1331,-113.4476 292.846,-111.7309 292.5466,-110.0513 292.2354,-108.4133 292.2354,-108.4133"/>
</g>
<!-- 2267bc92f47e68c65dd21d791e6dde9bf629fae2&#45;&gt;1232518cd76988bc57b4410692b1806f323f4b7a -->
<g id="edge7" class="edge">
<title>2267bc92f47e68c65dd21d791e6dde9bf629fae2&#45;&gt;1232518cd76988bc57b4410692b1806f323f4b7a</title>
<path fill="none" stroke="#000000" d="M250.3307,-72.7542C228.3918,-62.2235 200.2645,-48.7224 177.43,-37.7619"/>
<polygon fill="#000000" stroke="#000000" points="178.8529,-34.5626 168.3231,-33.3906 175.8238,-40.8733 178.8529,-34.5626"/>
</g>
<!-- 2267bc92f47e68c65dd21d791e6dde9bf629fae2&#45;&gt;800888f0ef7edc1c75e0133c964f0a57292bf028 -->
<g id="edge8" class="edge">
<title>2267bc92f47e68c65dd21d791e6dde9bf629fae2&#45;&gt;800888f0ef7edc1c75e0133c964f0a57292bf028</title>
<path fill="none" stroke="#000000" d="M288.5305,-71.8314C289.493,-64.131 290.6376,-54.9743 291.7073,-46.4166"/>
<polygon fill="#000000" stroke="#000000" points="295.1903,-46.7702 292.9577,-36.4133 288.2443,-45.9019 295.1903,-46.7702"/>
</g>
</g>
</svg>
