<?xml version="1.0" encoding="UTF-8" standalone="no"?>
<!DOCTYPE svg PUBLIC "-//W3C//DTD SVG 1.1//EN"
 "http://www.w3.org/Graphics/SVG/1.1/DTD/svg11.dtd">
<!-- Generated by graphviz version 2.40.1 (20161225.0304)
 -->
<!-- Title: %3 Pages: 1 -->
<svg width="428pt" height="620pt"
 viewBox="0.00 0.00 428.30 620.00" xmlns="http://www.w3.org/2000/svg" xmlns:xlink="http://www.w3.org/1999/xlink">
<g id="graph0" class="graph" transform="scale(1 1) rotate(0) translate(4 616)">
<title>%3</title>
<polygon fill="#ffffff" stroke="transparent" points="-4,4 -4,-616 424.2961,-616 424.2961,4 -4,4"/>
<!-- af8adec6eb19ffb032800f55447e629209eae7b7 -->
<g id="node1" class="node">
<title>af8adec6eb19ffb032800f55447e629209eae7b7</title>
<ellipse fill="none" stroke="#000000" cx="182.836" cy="-594" rx="57.9804" ry="18"/>
<text text-anchor="middle" x="182.836" y="-589.8" font-family="Times,serif" font-size="14.00" fill="#000000">af8ade: fib(5)</text>
</g>
<!-- f40db47d3530ec3b310d26503a8888b9dbcb6fcf -->
<g id="node2" class="node">
<title>f40db47d3530ec3b310d26503a8888b9dbcb6fcf</title>
<ellipse fill="none" stroke="#000000" cx="290.836" cy="-450" rx="59.4599" ry="18"/>
<text text-anchor="middle" x="290.836" y="-445.8" font-family="Times,serif" font-size="14.00" fill="#000000">f40db4: fib(4)</text>
</g>
<!-- af8adec6eb19ffb032800f55447e629209eae7b7&#45;&gt;f40db47d3530ec3b310d26503a8888b9dbcb6fcf -->
<g id="edge9" class="edge">
<title>af8adec6eb19ffb032800f55447e629209eae7b7&#45;&gt;f40db47d3530ec3b310d26503a8888b9dbcb6fcf</title>
<path fill="none" stroke="#000000" stroke-dasharray="1,5" d="M233.168,-585.0011C258.97,-577.5628 288.1855,-564.1228 303.836,-540 315.8359,-521.5039 310.8743,-496.4038 303.886,-477.4096"/>
<polygon fill="#000000" stroke="#000000" points="307.1165,-476.062 300.1259,-468.1007 300.626,-478.6837 307.1165,-476.062"/>
</g>
<!-- 7aff5ea558853a4ef2710798ca9ad70c73b68534 -->
<g id="node3" class="node">
<title>7aff5ea558853a4ef2710798ca9ad70c73b68534</title>
<ellipse fill="none" stroke="#000000" cx="132.836" cy="-306" rx="56.7095" ry="18"/>
<text text-anchor="middle" x="132.836" y="-301.8" font-family="Times,serif" font-size="14.00" fill="#000000">7aff5e: fib(3)</text>
</g>
<!-- af8adec6eb19ffb032800f55447e629209eae7b7&#45;&gt;7aff5ea558853a4ef2710798ca9ad70c73b68534 -->
<g id="edge10" class="edge">
<title>af8adec6eb19ffb032800f55447e629209eae7b7&#45;&gt;7aff5ea558853a4ef2710798ca9ad70c73b68534</title>
<path fill="none" stroke="#000000" stroke-dasharray="1,5" d="M132.5039,-585.0011C106.7019,-577.5628 77.4865,-564.1228 61.836,-540 18.0956,-472.581 77.8651,-376.9194 111.9801,-331.6474"/>
<polygon fill="#000000" stroke="#000000" points="114.8929,-333.6014 118.2219,-323.5432 109.3471,-329.3301 114.8929,-333.6014"/>
</g>
<!-- 5193a475a3c1df1ea1eab2444a3786eeb213dfca -->
<g id="node4" class="node">
<title>5193a475a3c1df1ea1eab2444a3786eeb213dfca</title>
<ellipse fill="none" stroke="#000000" cx="182.836" cy="-522" rx="112.0625" ry="18"/>
<text text-anchor="middle" x="182.836" y="-517.8" font-family="Times,serif" font-size="14.00" fill="#000000">5193a4: total([fib(4), fib(3)])</text>
</g>
<!-- af8adec6eb19ffb032800f55447e629209eae7b7&#45;&gt;5193a475a3c1df1ea1eab2444a3786eeb213dfca -->
<g id="edge11" class="edge">
<title>af8adec6eb19ffb032800f55447e629209eae7b7&#45;&gt;5193a475a3c1df1ea1eab2444a3786eeb213dfca</title>
<path fill="none" stroke="#000000" stroke-dasharray="1,5" d="M176.8836,-575.8314C176.1331,-568.131 175.9122,-558.9743 176.2209,-550.4166"/>
<polygon fill="#000000" stroke="#000000" points="179.7152,-550.6161 176.86,-540.4133 172.7294,-550.1697 179.7152,-550.6161"/>
</g>
<!-- f40db47d3530ec3b310d26503a8888b9dbcb6fcf&#45;&gt;7aff5ea558853a4ef2710798ca9ad70c73b68534 -->
<g id="edge12" class="edge">
<title>f40db47d3530ec3b310d26503a8888b9dbcb6fcf&#45;&gt;7aff5ea558853a4ef2710798ca9ad70c73b68534</title>
<path fill="none" stroke="#000000" stroke-dasharray="1,5" d="M244.8326,-438.5547C219.8876,-430.3103 190.1049,-416.8802 169.836,-396 153.2785,-378.9432 143.7444,-353.4464 138.5151,-333.9409"/>
<polygon fill="#000000" stroke="#000000" points="141.8798,-332.966 136.097,-324.0885 135.0815,-334.6346 141.8798,-332.966"/>
</g>
<!-- 0d30956267432b4f9237214f145f984b4f54cf1b -->
<g id="node5" class="node">
<title>0d30956267432b4f9237214f145f984b4f54cf1b</title>
<ellipse fill="none" stroke="#000000" cx="289.836" cy="-162" rx="60.9135" ry="18"/>
<text text-anchor="middle" x="289.836" y="-157.8" font-family="Times,serif" font-size="14.00" fill="#000000">0d3095: fib(2)</text>
</g>
<!-- f40db47d3530ec3b310d26503a8888b9dbcb6fcf&#45;&gt;0d30956267432b4f9237214f145f984b4f54cf1b -->
<g id="edge13" class="edge">
<title>f40db47d3530ec3b310d26503a8888b9dbcb6fcf&#45;&gt;0d30956267432b4f9237214f145f984b4f54cf1b</title>
<path fill="none" stroke="#000000" stroke-dasharray="1,5" d="M342.0983,-440.7307C367.6692,-433.2387 396.3733,-419.8333 411.836,-396 420.5443,-382.5774 416.1978,-375.394 411.836,-360 392.3726,-291.3089 341.5913,-223.0458 312.0417,-187.3916"/>
<polygon fill="#000000" stroke="#000000" points="314.487,-184.8614 305.3713,-179.4619 309.1302,-189.3675 314.487,-184.8614"/>
</g>
<!-- 484ba671db9b89ce860d92bcef4c68610760d3e3 -->
<g id="node6" class="node">
<title>484ba671db9b89ce860d92bcef4c68610760d3e3</title>
<ellipse fill="none" stroke="#000000" cx="290.836" cy="-378" rx="112.0625" ry="18"/>
<text text-anchor="middle" x="290.836" y="-373.8" font-family="Times,serif" font-size="14.00" fill="#000000">484ba6: total([fib(3), fib(2)])</text>
</g>
<!-- f40db47d3530ec3b310d26503a8888b9dbcb6fcf&#45;&gt;484ba671db9b89ce860d92bcef4c68610760d3e3 -->
<g id="edge14" class="edge">
<title>f40db47d3530ec3b310d26503a8888b9dbcb6fcf&#45;&gt;484ba671db9b89ce860d92bcef4c68610760d3e3</title>
<path fill="none" stroke="#000000" stroke-dasharray="1,5" d="M284.8836,-431.8314C284.1331,-424.131 283.9122,-414.9743 284.2209,-406.4166"/>
<polygon fill="#000000" stroke="#000000" points="287.7152,-406.6161 284.86,-396.4133 280.7294,-406.1697 287.7152,-406.6161"/>
</g>
<!-- 7aff5ea558853a4ef2710798ca9ad70c73b68534&#45;&gt;0d30956267432b4f9237214f145f984b4f54cf1b -->
<g id="edge15" class="edge">
<title>7aff5ea558853a4ef2710798ca9ad70c73b68534&#45;&gt;0d30956267432b4f9237214f145f984b4f54cf1b</title>
<path fill="none" stroke="#000000" stroke-dasharray="1,5" d="M177.1405,-294.6032C201.8254,-286.3043 231.5754,-272.8043 251.836,-252 268.4865,-234.9026 278.3135,-209.4099 283.7877,-189.9163"/>
<polygon fill="#000000" stroke="#000000" points="287.2186,-190.6284 286.3318,-180.0708 280.4412,-188.8771 287.2186,-190.6284"/>
</g>
<!-- 9a67ddf95ff2412bcb106aebad315484a2f3a049 -->
<g id="node7" class="node">
<title>9a67ddf95ff2412bcb106aebad315484a2f3a049</title>
<ellipse fill="none" stroke="#000000" cx="130.836" cy="-18" rx="60.4204" ry="18"/>
<text text-anchor="middle" x="130.836" y="-13.8" font-family="Times,serif" font-size="14.00" fill="#000000">9a67dd: fib(1)</text>
</g>
<!-- 7aff5ea558853a4ef2710798ca9ad70c73b68534&#45;&gt;9a67ddf95ff2412bcb106aebad315484a2f3a049 -->
<g id="edge16" class="edge">
<title>7aff5ea558853a4ef2710798ca9ad70c73b68534&#45;&gt;9a67ddf95ff2412bcb106aebad315484a2f3a049</title>
<path fill="none" stroke="#000000" stroke-dasharray="1,5" d="M83.6159,-296.8677C58.1587,-289.3794 29.2582,-275.9341 13.836,-252 -33.0062,-179.3046 54.55,-85.3029 102.498,-41.9007"/>
<polygon fill="#000000" stroke="#000000" points="104.9599,-44.3952 110.1076,-35.135 100.3087,-39.164 104.9599,-44.3952"/>
</g>
<!-- f07f1de93128b74c8dca21ec0454d1cddf020688 -->
<g id="node8" class="node">
<title>f07f1de93128b74c8dca21ec0454d1cddf020688</title>
<ellipse fill="none" stroke="#000000" cx="132.836" cy="-234" rx="109.6485" ry="18"/>
<text text-anchor="middle" x="132.836" y="-229.8" font-family="Times,serif" font-size="14.00" fill="#000000">f07f1d: total([fib(2), fib(1)])</text>
</g>
<!-- 7aff5ea558853a4ef2710798ca9ad70c73b68534&#45;&gt;f07f1de93128b74c8dca21ec0454d1cddf020688 -->
<g id="edge17" class="edge">
<title>7aff5ea558853a4ef2710798ca9ad70c73b68534&#45;&gt;f07f1de93128b74c8dca21ec0454d1cddf020688</title>
<path fill="none" stroke="#000000" stroke-dasharray="1,5" d="M126.8836,-287.8314C126.1331,-280.131 125.9122,-270.9743 126.2209,-262.4166"/>
<polygon fill="#000000" stroke="#000000" points="129.7152,-262.6161 126.86,-252.4133 122.7294,-262.1697 129.7152,-262.6161"/>
</g>
<!-- 5193a475a3c1df1ea1eab2444a3786eeb213dfca&#45;&gt;af8adec6eb19ffb032800f55447e629209eae7b7 -->
<g id="edge21" class="edge">
<title>5193a475a3c1df1ea1eab2444a3786eeb213dfca&#45;&gt;af8adec6eb19ffb032800f55447e629209eae7b7</title>
<polygon fill="#000000" stroke="transparent" stroke-width="7" points="188.812,-540.4133 188.797,-542.0787 188.7624,-543.7791 188.7087,-545.5103 188.6362,-547.2682 188.5456,-549.0486 188.4371,-550.8471 188.3113,-552.6595 188.1686,-554.4816 188.0095,-556.309 187.8344,-558.1373 187.6437,-559.9622 187.4379,-561.7792 187.2174,-563.584 186.9828,-565.3719 186.7345,-567.1387 186.4729,-568.8796 186.1987,-570.59 185.9122,-572.2653 185.614,-573.9008 185.3029,-575.5126 192.2738,-576.1501 192.2636,-574.4708 192.235,-572.7371 192.1866,-570.9742 192.119,-569.1856 192.0327,-567.3754 191.9281,-565.5474 191.8059,-563.7058 191.6664,-561.8545 191.5101,-559.9977 191.3375,-558.1396 191.149,-556.2842 190.9451,-554.4358 190.7262,-552.5986 190.4927,-550.777 190.2452,-548.975 189.984,-547.1971 189.7097,-545.4476 189.4226,-543.7309 189.1232,-542.0513 188.812,-540.4133 188.812,-540.4133"/>
</g>
<!-- 5193a475a3c1df1ea1eab2444a3786eeb213dfca&#45;&gt;f40db47d3530ec3b310d26503a8888b9dbcb6fcf -->
<g id="edge1" class="edge">
<title>5193a475a3c1df1ea1eab2444a3786eeb213dfca&#45;&gt;f40db47d3530ec3b310d26503a8888b9dbcb6fcf</title>
<path fill="none" stroke="#000000" d="M209.2557,-504.3868C223.9036,-494.6216 242.2526,-482.3889 257.8371,-471.9993"/>
<polygon fill="#000000" stroke="#000000" points="259.7906,-474.9034 266.1697,-466.4442 255.9077,-469.0791 259.7906,-474.9034"/>
</g>
<!-- 5193a475a3c1df1ea1eab2444a3786eeb213dfca&#45;&gt;7aff5ea558853a4ef2710798ca9ad70c73b68534 -->
<g id="edge2" class="edge">
<title>5193a475a3c1df1ea1eab2444a3786eeb213dfca&#45;&gt;7aff5ea558853a4ef2710798ca9ad70c73b68534</title>
<path fill="none" stroke="#000000" d="M176.113,-503.9086C167.3692,-479.6767 152.2247,-435.1852 143.836,-396 139.4492,-375.5087 136.6502,-351.9913 134.974,-334.1364"/>
<polygon fill="#000000" stroke="#000000" points="138.4529,-333.7424 134.0922,-324.0866 131.4797,-334.3543 138.4529,-333.7424"/>
</g>
<!-- 0d30956267432b4f9237214f145f984b4f54cf1b&#45;&gt;9a67ddf95ff2412bcb106aebad315484a2f3a049 -->
<g id="edge18" class="edge">
<title>0d30956267432b4f9237214f145f984b4f54cf1b&#45;&gt;9a67ddf95ff2412bcb106aebad315484a2f3a049</title>
<path fill="none" stroke="#000000" stroke-dasharray="1,5" d="M243.3164,-150.2839C218.517,-142.0002 189.0425,-128.6197 168.836,-108 152.1322,-90.9546 142.3105,-65.4567 136.8518,-45.9479"/>
<polygon fill="#000000" stroke="#000000" points="140.1979,-44.9062 134.3169,-36.0935 133.4186,-46.6502 140.1979,-44.9062"/>
</g>
<!-- 432e821c4108aac9871fff294a64de53c9b2a3bc -->
<g id="node9" class="node">
<title>432e821c4108aac9871fff294a64de53c9b2a3bc</title>
<ellipse fill="none" stroke="#000000" cx="359.836" cy="-18" rx="60.4204" ry="18"/>
<text text-anchor="middle" x="359.836" y="-13.8" font-family="Times,serif" font-size="14.00" fill="#000000">432e82: fib(0)</text>
</g>
<!-- 0d30956267432b4f9237214f145f984b4f54cf1b&#45;&gt;432e821c4108aac9871fff294a64de53c9b2a3bc -->
<g id="edge19" class="edge">
<title>0d30956267432b4f9237214f145f984b4f54cf1b&#45;&gt;432e821c4108aac9871fff294a64de53c9b2a3bc</title>
<path fill="none" stroke="#000000" stroke-dasharray="1,5" d="M341.7201,-152.5475C367.1332,-145.0209 395.4985,-131.6403 410.836,-108 424.9879,-86.1869 406.8203,-60.2603 388.3633,-41.8499"/>
<polygon fill="#000000" stroke="#000000" points="390.7394,-39.2796 381.0729,-34.9428 385.9251,-44.3612 390.7394,-39.2796"/>
</g>
<!-- b33a55e2fbadbbe9f7503639a27f4c6758e5a648 -->
<g id="node10" class="node">
<title>b33a55e2fbadbbe9f7503639a27f4c6758e5a648</title>
<ellipse fill="none" stroke="#000000" cx="289.836" cy="-90" rx="112.0625" ry="18"/>
<text text-anchor="middle" x="289.836" y="-85.8" font-family="Times,serif" font-size="14.00" fill="#000000">b33a55: total([fib(1), fib(0)])</text>
</g>
<!-- 0d30956267432b4f9237214f145f984b4f54cf1b&#45;&gt;b33a55e2fbadbbe9f7503639a27f4c6758e5a648 -->
<g id="edge20" class="edge">
<title>0d30956267432b4f9237214f145f984b4f54cf1b&#45;&gt;b33a55e2fbadbbe9f7503639a27f4c6758e5a648</title>
<path fill="none" stroke="#000000" stroke-dasharray="1,5" d="M283.8836,-143.8314C283.1331,-136.131 282.9122,-126.9743 283.2209,-118.4166"/>
<polygon fill="#000000" stroke="#000000" points="286.7152,-118.6161 283.86,-108.4133 279.7294,-118.1697 286.7152,-118.6161"/>
</g>
<!-- 484ba671db9b89ce860d92bcef4c68610760d3e3&#45;&gt;f40db47d3530ec3b310d26503a8888b9dbcb6fcf -->
<g id="edge22" class="edge">
<title>484ba671db9b89ce860d92bcef4c68610760d3e3&#45;&gt;f40db47d3530ec3b310d26503a8888b9dbcb6fcf</title>
<polygon fill="#000000" stroke="transparent" stroke-width="7" points="296.812,-396.4133 296.797,-398.0787 296.7624,-399.7791 296.7087,-401.5103 296.6362,-403.2682 296.5456,-405.0486 296.4371,-406.8471 296.3113,-408.6595 296.1686,-410.4816 296.0095,-412.309 295.8344,-414.1373 295.6437,-415.9622 295.4379,-417.7792 295.2174,-419.584 294.9828,-421.3719 294.7345,-423.1387 294.4729,-424.8796 294.1987,-426.59 293.9122,-428.2653 293.614,-429.9008 293.3029,-431.5126 300.2738,-432.1501 300.2636,-430.4708 300.235,-428.7371 300.1866,-426.9742 300.119,-425.1856 300.0327,-423.3754 299.9281,-421.5474 299.8059,-419.7058 299.6664,-417.8545 299.5101,-415.9977 299.3375,-414.1396 299.149,-412.2842 298.9451,-410.4358 298.7262,-408.5986 298.4927,-406.777 298.2452,-404.975 297.984,-403.1971 297.7097,-401.4476 297.4226,-399.7309 297.1232,-398.0513 296.812,-396.4133 296.812,-396.4133"/>
</g>
<!-- 484ba671db9b89ce860d92bcef4c68610760d3e3&#45;&gt;7aff5ea558853a4ef2710798ca9ad70c73b68534 -->
<g id="edge4" class="edge">
<title>484ba671db9b89ce860d92bcef4c68610760d3e3&#45;&gt;7aff5ea558853a4ef2710798ca9ad70c73b68534</title>
<path fill="none" stroke="#000000" d="M253.3922,-360.937C229.7877,-350.1805 199.2637,-336.2709 174.8364,-325.1394"/>
<polygon fill="#000000" stroke="#000000" points="176.0125,-321.8291 165.4614,-320.8673 173.1097,-328.1989 176.0125,-321.8291"/>
</g>
<!-- 484ba671db9b89ce860d92bcef4c68610760d3e3&#45;&gt;0d30956267432b4f9237214f145f984b4f54cf1b -->
<g id="edge3" class="edge">
<title>484ba671db9b89ce860d92bcef4c68610760d3e3&#45;&gt;0d30956267432b4f9237214f145f984b4f54cf1b</title>
<path fill="none" stroke="#000000" d="M290.7524,-359.9555C290.5785,-322.3938 290.1765,-235.5541 289.9675,-190.4103"/>
<polygon fill="#000000" stroke="#000000" points="293.4663,-190.1287 289.92,-180.1451 286.4664,-190.1612 293.4663,-190.1287"/>
</g>
<!-- f07f1de93128b74c8dca21ec0454d1cddf020688&#45;&gt;7aff5ea558853a4ef2710798ca9ad70c73b68534 -->
<g id="edge23" class="edge">
<title>f07f1de93128b74c8dca21ec0454d1cddf020688&#45;&gt;7aff5ea558853a4ef2710798ca9ad70c73b68534</title>
<polygon fill="#000000" stroke="transparent" stroke-width="7" points="138.812,-252.4133 138.797,-254.0787 138.7624,-255.7791 138.7087,-257.5103 138.6362,-259.2682 138.5456,-261.0486 138.4371,-262.8471 138.3113,-264.6595 138.1686,-266.4816 138.0095,-268.309 137.8344,-270.1373 137.6437,-271.9622 137.4379,-273.7792 137.2174,-275.584 136.9828,-277.3719 136.7345,-279.1387 136.4729,-280.8796 136.1987,-282.59 135.9122,-284.2653 135.614,-285.9008 135.3029,-287.5126 142.2738,-288.1501 142.2636,-286.4708 142.235,-284.7371 142.1866,-282.9742 142.119,-281.1856 142.0327,-279.3754 141.9281,-277.5474 141.8059,-275.7058 141.6664,-273.8545 141.5101,-271.9977 141.3375,-270.1396 141.149,-268.2842 140.9451,-266.4358 140.7262,-264.5986 140.4927,-262.777 140.2452,-260.975 139.984,-259.1971 139.7097,-257.4476 139.4226,-255.7309 139.1232,-254.0513 138.812,-252.4133 138.812,-252.4133"/>
</g>
<!-- f07f1de93128b74c8dca21ec0454d1cddf020688&#45;&gt;0d30956267432b4f9237214f145f984b4f54cf1b -->
<g id="edge5" class="edge">
<title>f07f1de93128b74c8dca21ec0454d1cddf020688&#45;&gt;0d30956267432b4f9237214f145f984b4f54cf1b</title>
<path fill="none" stroke="#000000" d="M170.0428,-216.937C193.2577,-206.2907 223.2082,-192.5554 247.3539,-181.4822"/>
<polygon fill="#000000" stroke="#000000" points="249.0025,-184.5767 256.6333,-177.2267 246.0845,-178.2139 249.0025,-184.5767"/>
</g>
<!-- f07f1de93128b74c8dca21ec0454d1cddf020688&#45;&gt;9a67ddf95ff2412bcb106aebad315484a2f3a049 -->
<g id="edge6" class="edge">
<title>f07f1de93128b74c8dca21ec0454d1cddf020688&#45;&gt;9a67ddf95ff2412bcb106aebad315484a2f3a049</title>
<path fill="none" stroke="#000000" d="M132.6689,-215.9555C132.3211,-178.3938 131.517,-91.5541 131.099,-46.4103"/>
<polygon fill="#000000" stroke="#000000" points="134.5965,-46.1122 131.004,-36.1451 127.5968,-46.1771 134.5965,-46.1122"/>
</g>
<!-- b33a55e2fbadbbe9f7503639a27f4c6758e5a648&#45;&gt;0d30956267432b4f9237214f145f984b4f54cf1b -->
<g id="edge24" class="edge">
<title>b33a55e2fbadbbe9f7503639a27f4c6758e5a648&#45;&gt;0d30956267432b4f9237214f145f984b4f54cf1b</title>
<polygon fill="#000000" stroke="transparent" stroke-width="7" points="295.812,-108.4133 295.797,-110.0787 295.7624,-111.7791 295.7087,-113.5103 295.6362,-115.2682 295.5456,-117.0486 295.4371,-118.8471 295.3113,-120.6595 295.1686,-122.4816 295.0095,-124.309 294.8344,-126.1373 294.6437,-127.9622 294.4379,-129.7792 294.2174,-131.584 293.9828,-133.3719 293.7345,-135.1387 293.4729,-136.8796 293.1987,-138.59 292.9122,-140.2653 292.614,-141.9008 292.3029,-143.5126 299.2738,-144.1501 299.2636,-142.4708 299.235,-140.7371 299.1866,-138.9742 299.119,-137.1856 299.0327,-135.3754 298.9281,-133.5474 298.8059,-131.7058 298.6664,-129.8545 298.5101,-127.9977 298.3375,-126.1396 298.149,-124.2842 297.9451,-122.4358 297.7262,-120.5986 297.4927,-118.777 297.2452,-116.975 296.984,-115.1971 296.7097,-113.4476 296.4226,-111.7309 296.1232,-110.0513 295.812,-108.4133 295.812,-108.4133"/>
</g>
<!-- b33a55e2fbadbbe9f7503639a27f4c6758e5a648&#45;&gt;9a67ddf95ff2412bcb106aebad315484a2f3a049 -->
<g id="edge8" class="edge">
<title>b33a55e2fbadbbe9f7503639a27f4c6758e5a648&#45;&gt;9a67ddf95ff2412bcb106aebad315484a2f3a049</title>
<path fill="none" stroke="#000000" d="M252.1552,-72.937C228.5635,-62.254 198.1032,-48.4606 173.6064,-37.3678"/>
<polygon fill="#000000" stroke="#000000" points="174.7497,-34.0434 164.1963,-33.1066 171.8621,-40.4201 174.7497,-34.0434"/>
</g>
<!-- b33a55e2fbadbbe9f7503639a27f4c6758e5a648&#45;&gt;432e821c4108aac9871fff294a64de53c9b2a3bc -->
<g id="edge7" class="edge">
<title>b33a55e2fbadbbe9f7503639a27f4c6758e5a648&#45;&gt;432e821c4108aac9871fff294a64de53c9b2a3bc</title>
<path fill="none" stroke="#000000" d="M307.1393,-72.2022C315.7648,-63.3303 326.3362,-52.4569 335.7407,-42.7837"/>
<polygon fill="#000000" stroke="#000000" points="338.5119,-44.9543 342.9732,-35.3446 333.4929,-40.0748 338.5119,-44.9543"/>
</g>
</g>
</svg>
